<?xml version="1.0" standalone="no"?>
<!DOCTYPE svg PUBLIC "-//W3C//DTD SVG 1.1//EN" "http://www.w3.org/Graphics/SVG/1.1/DTD/svg11.dtd" >
<svg>
<metadata>
Created by FontForge 20090622 at Sat Dec 16 08:28:13 2017
 By deploy user
Copyright (c) 2005 by Telenor ASA. All rights reserved.
</metadata>
<defs>
<font id="Telenor-Light" horiz-adv-x="1304" >
  <font-face 
    font-family="Telenor"
    font-weight="300"
    font-stretch="normal"
    units-per-em="2048"
    panose-1="2 0 0 0 0 0 0 0 0 0"
    ascent="1638"
    descent="-410"
    x-height="1104"
    cap-height="1509"
    bbox="-35.4444 -543 2050 1956"
    underline-thickness="102"
    underline-position="-102"
    unicode-range="U+000D-U+FB02"
  />
<missing-glyph horiz-adv-x="748" 
d="M68 0v1365h544v-1365h-544zM136 68h408v1229h-408v-1229z" />
    <glyph glyph-name=".notdef" horiz-adv-x="748" 
d="M68 0v1365h544v-1365h-544zM136 68h408v1229h-408v-1229z" />
    <glyph glyph-name="glyph1" horiz-adv-x="2048" 
 />
    <glyph glyph-name="glyph1" horiz-adv-x="2048" 
 />
    <glyph glyph-name="uni000D" unicode="&#xd;" horiz-adv-x="440" 
 />
    <glyph glyph-name="space" unicode=" " horiz-adv-x="440" 
 />
    <glyph glyph-name="exclam" unicode="!" horiz-adv-x="518" 
d="M195 1491q0 12 23.5 15t43.5 3q18 0 42 -4t24 -14l-17 -1028q0 -10 -17.5 -12t-33.5 -2t-32.5 2t-16.5 12zM201 4v195q0 10 20.5 11t36.5 1t36.5 -1t20.5 -11v-195q0 -10 -20.5 -11t-36.5 -1t-36.5 1t-20.5 11z" />
    <glyph glyph-name="quotedbl" unicode="&#x22;" horiz-adv-x="702" 
d="M154 1497q0 10 23.5 11t39.5 1t41 -1t25 -11l-25 -508q0 -8 -15.5 -10t-25.5 -2t-24.5 3t-14.5 9zM420 1497q0 10 24.5 11t40.5 1t40 -1t24 -11l-25 -508q0 -8 -14 -10t-27 -2q-10 0 -24.5 3t-14.5 9z" />
    <glyph glyph-name="numbersign" unicode="#" horiz-adv-x="1253" 
d="M100.5 512q-0.5 14 3.5 31l6.5 26.5t10.5 10.5h237l78 368h-233q-10 0 -9 14.5t5 30.5q4 14 7 26.5t11 12.5h238l96 465q2 10 17.5 11t31.5 1t33.5 -1t15.5 -11l-94 -465h360l101 465q2 10 16.5 11t30.5 1t34.5 -1t16.5 -11l-100 -465h209q10 0 10 -13.5t-4 -31.5
q-10 -39 -23 -39h-211l-77 -368h208q12 0 12.5 -14.5t-3.5 -28.5q-12 -39 -23 -39h-213l-102 -494q-2 -10 -17.5 -11t-31.5 -1t-34 1t-16 11l103 494h-363l-102 -494q-2 -10 -19.5 -11t-33.5 -1t-31.5 1t-13.5 11l102 494h-231q-8 0 -8.5 14zM457 580h362l78 368h-362z" />
    <glyph glyph-name="dollar" unicode="$" 
d="M202 203.5q5 17.5 16 37t22.5 33t17.5 9.5q31 -23 72 -47.5t90 -44t103.5 -33t107.5 -13.5q156 0 255 82t99 230q0 92 -54 144t-136 85t-177.5 58.5t-177.5 65.5t-136 106.5t-54 181.5q0 145 89 239.5t249 116.5v188q0 10 21.5 11.5t37.5 1.5t37 -1t21 -12v-182
q104 -4 187 -30.5t148 -61.5q6 -4 3 -21.5t-11 -36t-18 -31.5t-19 -9q-66 41 -150.5 63.5t-162.5 22.5q-135 0 -224 -65.5t-89 -188.5q0 -68 31.5 -112t84 -72.5t119 -48l136 -40t136 -46t119 -65.5t84 -101.5t31.5 -153.5q0 -90 -31.5 -164t-86 -127t-128 -86t-157.5 -43
v-188q0 -10 -20.5 -11.5t-37.5 -1.5q-16 0 -37.5 1t-21.5 12v184q-106 8 -207.5 48t-177.5 93q-8 6 -3 23.5z" />
    <glyph glyph-name="percent" unicode="%" horiz-adv-x="1523" 
d="M158 983v317q0 113 66.5 161t181.5 48t183 -48t68 -161v-317q0 -113 -68 -159t-183 -46t-181.5 46t-66.5 159zM266 983q0 -74 42 -94.5t98 -20.5q55 0 98 20.5t43 94.5v317q0 74 -43 96.5t-98 22.5t-97.5 -22.5t-42.5 -96.5v-317zM309 12l774 1485q4 10 25.5 11t38.5 1
q16 0 41.5 -1t21.5 -11l-774 -1485q-4 -10 -25.5 -11t-37.5 -1h-20.5t-23 1t-16.5 4t-4 7zM911 176v340q0 113 66.5 161t181.5 48t182.5 -48t67.5 -161v-340q0 -113 -67.5 -161t-184.5 -48q-115 0 -180.5 48t-65.5 161zM1018 176q0 -74 42 -95.5t97 -21.5t98 21.5t43 95.5
v340q0 74 -43 96.5t-98 22.5t-97 -22.5t-42 -96.5v-340z" />
    <glyph glyph-name="ampersand" unicode="&#x26;" horiz-adv-x="1331" 
d="M127 340v113q0 59 25.5 110t69.5 99.5t102.5 92.5t124.5 89q-82 80 -141.5 160.5t-59.5 166.5v64q0 49 12 101.5t46 95.5t94.5 69.5t158.5 26.5t157.5 -30t92.5 -74t44 -94t11 -89v-70q0 -53 -15 -95t-48 -81t-82 -78.5t-119 -89.5l387 -452l125 213q6 10 24.5 11t34.5 1
t41 -1t21 -11l-172 -293l184 -223q6 -8 -6 -25.5t-29.5 -34t-36 -26t-24.5 1.5l-160 202q-16 -23 -51 -58.5t-87 -70t-122 -60.5t-158 -26q-211 0 -327.5 86t-116.5 279zM240 367q0 -90 31.5 -147.5t79.5 -90.5t106.5 -45t113.5 -12q76 0 135.5 26.5t103.5 61.5t71.5 69.5
l40.5 51.5l-408 487l-113 -84l-47.5 -38.5t-53.5 -55.5t-43 -74t-17 -90v-59zM360 1188q0 -43 16.5 -83t43 -75t57.5 -66.5l60 -62.5q106 66 159.5 132.5t53.5 154.5v45q0 39 -10.5 76t-33 64.5t-58.5 45t-89 17.5q-98 0 -148.5 -48.5t-50.5 -154.5v-45z" />
    <glyph glyph-name="quotesingle" unicode="'" horiz-adv-x="333" 
d="M102 1497q0 10 24 11t40 1t40.5 -1t24.5 -11l-24 -508q0 -8 -15.5 -10t-25.5 -2t-24.5 3t-14.5 9z" />
    <glyph glyph-name="parenleft" unicode="(" horiz-adv-x="729" 
d="M176 682q0 168 32 314.5t77 262t93 195.5t83 117q4 6 19.5 0t30.5 -16.5t26.5 -22.5t7.5 -19q-37 -49 -82 -129.5t-85 -187t-66.5 -238t-26.5 -278.5q0 -135 26.5 -264t66.5 -237.5t85 -193.5t82 -135q4 -6 -7.5 -18t-26.5 -22.5t-30.5 -16.5t-19.5 0q-35 37 -83 117
t-93 195.5t-77 262t-32 314.5z" />
    <glyph glyph-name="parenright" unicode=")" horiz-adv-x="729" 
d="M176 -150q37 49 82 134.5t85 194t66.5 237.5t26.5 264q0 147 -26.5 278.5t-66.5 238t-85 187t-82 129.5q-4 6 6.5 17.5t25.5 23t30.5 17.5t21.5 0q33 -37 82 -117t94 -195.5t77 -262t32 -314.5t-32 -314.5t-77 -262t-94 -195.5t-82 -117q-6 -6 -21.5 0t-30.5 17.5
t-25.5 22.5t-6.5 17z" />
    <glyph glyph-name="asterisk" unicode="*" horiz-adv-x="821" 
d="M127 1273.5q2 16.5 8 34t15.5 31t15.5 11.5l219 -90l-18 237q0 10 17 11t34 1q16 0 33.5 -1t17.5 -11l-18 -237l221 90q6 2 13 -12.5t13.5 -33t8.5 -35t-5 -16.5l-231 -55l154 -184q4 -6 -7.5 -17.5t-27 -22.5t-29.5 -17.5t-18 -0.5l-125 203l-127 -203q-4 -6 -18.5 0.5
t-30 18.5t-25.5 24.5t-6 16.5l154 182l-232 57q-8 2 -6 18.5z" />
    <glyph glyph-name="plus" unicode="+" 
d="M127 512q0 16 1 32.5t11 16.5h455v465q0 10 17.5 11t33.5 1t34.5 -1t18.5 -11v-465h469q10 0 11.5 -16.5t1.5 -32.5t-1 -32.5t-12 -16.5h-469v-459q0 -10 -18 -11t-35 -1q-16 0 -33.5 1t-17.5 11v459h-455q-10 0 -11 16.5t-1 32.5z" />
    <glyph glyph-name="comma" unicode="," horiz-adv-x="501" 
d="M127 -162q33 37 51.5 69t27.5 72.5t12 98t3 145.5q0 10 19.5 11.5t35.5 1.5t36 -1.5t20 -11.5q0 -82 -9.5 -145.5t-28 -115.5t-46 -93t-64.5 -78q-14 -13 -41 10q-29 20 -16 37z" />
    <glyph glyph-name="hyphen" unicode="-" horiz-adv-x="960" 
d="M164 608q0 16 1 32.5t11 16.5h608q10 0 11.5 -16t1.5 -33q0 -16 -1 -32.5t-12 -16.5h-608q-10 0 -11 16.5t-1 32.5z" />
    <glyph glyph-name="period" unicode="." horiz-adv-x="444" 
d="M164 4v244q0 10 20.5 11t36.5 1t37 -1t21 -11v-244q0 -10 -21 -11t-37 -1t-36.5 1t-20.5 11z" />
    <glyph glyph-name="slash" unicode="/" horiz-adv-x="800" 
d="M23 4l643 1493q4 10 21.5 11t33.5 1t38.5 -1t18.5 -11l-643 -1493q-4 -10 -22.5 -11t-34.5 -1t-38 1t-17 11z" />
    <glyph glyph-name="zero" unicode="0" 
d="M193 377v743q0 217 123.5 311.5t347.5 94.5q223 0 335.5 -94.5t112.5 -311.5v-743q0 -215 -112.5 -308.5t-335.5 -93.5q-111 0 -199 22.5t-148.5 71t-92 124t-31.5 184.5zM311 381q0 -162 85 -229.5t268 -67.5q176 0 252.5 67.5t76.5 229.5v735q0 160 -76.5 230.5
t-252.5 70.5q-182 0 -267.5 -70.5t-85.5 -230.5v-735z" />
    <glyph glyph-name="one" unicode="1" horiz-adv-x="737" 
d="M123 1354q0 14 1 31.5t11 19.5q53 10 123 37.5t129 58.5h80v-1497q0 -10 -21.5 -11t-37.5 -1t-37 1t-21 11v1370q-25 -12 -57.5 -23.5t-64 -20.5t-56.5 -14t-35 -5t-12 13t-2 30z" />
    <glyph glyph-name="two" unicode="2" horiz-adv-x="1175" 
d="M131 0v141q0 119 25.5 207t80 156.5t138.5 128t203 125.5q111 61 180 106t108 87t52.5 88t13.5 108q0 123 -86 199.5t-242 76.5q-98 0 -184 -26.5t-172 -77.5q-8 -4 -19.5 8t-19.5 29.5t-12 35t4 23.5q72 43 177 77t224 34q217 0 329.5 -103.5t112.5 -275.5
q0 -88 -23.5 -152.5t-69.5 -116t-114.5 -95.5t-160.5 -93q-133 -72 -217 -129t-130 -116.5t-62.5 -129t-16.5 -165.5v-50h772q10 0 11 -17t1 -34q0 -16 -1 -32.5t-11 -16.5h-891z" />
    <glyph glyph-name="three" unicode="3" horiz-adv-x="1091" 
d="M101.5 112.5q2.5 18.5 12 37t21 33t17.5 10.5q82 -49 171 -79t187 -30q135 0 218 67.5t83 196.5v98q0 141 -86 203t-231 62h-82q-10 0 -11.5 19.5t-1.5 35.5t1 34.5t12 18.5h106q63 0 116.5 15.5t93.5 47t62.5 80t22.5 113.5v86q0 63 -22.5 111.5t-62.5 81t-93 49
t-113 16.5q-104 0 -186 -26.5t-158 -75.5q-6 -4 -18.5 8t-22.5 30.5t-15 36t3 23.5q31 20 74 41t95 36t109.5 24.5t116.5 9.5q72 0 144.5 -20.5t131 -63.5t95.5 -112.5t37 -168.5v-90q0 -70 -22.5 -122t-59.5 -90t-84 -60.5t-96 -32.5q49 -10 96 -33.5t83 -62.5t58.5 -92.5
t22.5 -120.5v-105q0 -84 -30 -153.5t-83 -118.5t-131 -77t-172 -28q-84 0 -154.5 16.5t-123 36t-85 38t-38.5 22.5q-10 6 -7.5 24.5z" />
    <glyph glyph-name="four" unicode="4" horiz-adv-x="1163" 
d="M90 379q0 20 1 29.5t5 15.5l682 1077q4 6 19.5 7t23.5 1t24.5 -1t16.5 -7v-1061h182q10 0 11.5 -17t1.5 -34q0 -16 -1 -33.5t-12 -17.5h-182v-334q0 -10 -19.5 -11t-35.5 -1t-36.5 1t-20.5 11v334h-654q-6 0 -6 41zM225 440h525v830z" />
    <glyph glyph-name="five" unicode="5" horiz-adv-x="1148" 
d="M152 127q-6 4 0 21.5t18 34t26.5 28.5t20.5 6q63 -51 145 -91t187 -40q172 0 243.5 89t71.5 239v129q0 154 -65.5 238.5t-202.5 84.5q-92 0 -154.5 -34.5t-115.5 -94.5h-103v764h733q10 0 11.5 -17.5t1.5 -33.5t-1 -33.5t-12 -17.5h-620v-522q49 45 119.5 71.5
t150.5 26.5q186 0 282.5 -112.5t96.5 -319.5v-133q0 -96 -27.5 -175t-82 -137.5t-134.5 -90.5t-186 -32q-125 0 -225.5 42t-177.5 110z" />
    <glyph glyph-name="six" unicode="6" horiz-adv-x="1263" 
d="M193 475v600q0 92 25.5 174t81.5 143.5t146.5 97.5t221.5 36q121 0 210 -25.5t160 -62.5q6 -4 1 -20.5t-13 -36t-17.5 -34t-15.5 -10.5q-59 37 -144 60.5t-183 23.5q-96 0 -164 -25.5t-110 -71.5t-61.5 -108.5t-19.5 -138.5v-295q12 31 43 67t77 66.5t107.5 50
t139.5 19.5q209 0 325.5 -108.5t116.5 -319.5v-145q0 -199 -119 -318t-346 -119q-115 0 -200.5 36t-144 101.5t-88 157.5t-29.5 205zM311 434q0 -166 92.5 -263t251.5 -97q74 0 138.5 19.5t111.5 60.5t74 103t27 149v137q0 162 -82 251t-258 89q-78 0 -143.5 -24.5
t-113 -67.5t-73 -104.5t-25.5 -135.5v-117z" />
    <glyph glyph-name="seven" unicode="7" horiz-adv-x="1056" 
d="M53 1450q0 16 1 33.5t12 17.5h874q6 0 8 -6t2 -29q0 -27 -1 -37t-5 -20l-530 -1405q-4 -10 -24.5 -11t-37.5 -1h-19t-21.5 1t-17.5 4t-5 7l532 1395h-755q-10 0 -11.5 17.5t-1.5 33.5z" />
    <glyph glyph-name="eight" unicode="8" horiz-adv-x="1226" 
d="M158 367v45q0 84 24.5 144t61.5 102t81 68t83 38q-25 10 -63 35.5t-72.5 68.5t-60.5 102.5t-26 137.5v27q0 186 105.5 288.5t322.5 102.5t322.5 -102.5t105.5 -288.5v-21q0 -80 -21.5 -138t-53 -100t-70.5 -69t-74 -41q39 -12 83 -38t81 -69t60.5 -104t23.5 -145v-39
q0 -92 -32.5 -165t-92 -124t-144 -79t-188.5 -28q-102 0 -186 27t-144.5 77t-93 122.5t-32.5 165.5zM268 369q0 -74 27 -130.5t74 -94.5t109.5 -57t135.5 -19q70 0 132.5 19t110.5 57t76 95.5t28 131.5v39q0 84 -25 143t-70 96t-109.5 53.5t-142.5 16.5q-74 0 -136 -16.5
t-109 -53.5t-74 -96t-27 -143v-41zM295 1108q0 -78 23.5 -134t66.5 -93t101.5 -55.5t127.5 -18.5q147 0 233.5 73.5t86.5 227.5v27q0 86 -23.5 142t-66.5 91t-101.5 49.5t-128.5 14.5t-128 -14.5t-101 -48.5t-66.5 -90t-23.5 -138v-33z" />
    <glyph glyph-name="nine" unicode="9" horiz-adv-x="1267" 
d="M147 944v146q0 199 119 317.5t346 118.5q113 0 200 -35t145.5 -96.5t88 -146.5t29.5 -185v-637q0 -92 -25.5 -174t-82 -143.5t-146.5 -97.5t-221 -36q-121 0 -210 26t-161 62q-6 2 -1 19.5t13.5 37t17.5 33t15 11.5q59 -37 144.5 -60.5t183.5 -23.5q96 0 164 25.5
t111 71.5t62 108.5t19 138.5v295q-12 -31 -42.5 -67t-76.5 -66.5t-108.5 -50t-138.5 -19.5q-104 0 -186 31t-139.5 87t-88.5 135t-31 175zM262 958q0 -162 92 -252t248 -90q78 0 143.5 25t112.5 69t73.5 103t26.5 127v154q0 74 -24.5 135t-69.5 105t-108.5 68.5t-143.5 24.5
q-74 0 -138 -19t-111.5 -60t-74 -103.5t-26.5 -148.5v-138z" />
    <glyph glyph-name="colon" unicode=":" horiz-adv-x="464" 
d="M201 4v244q0 10 20.5 11t36.5 1t36.5 -1t20.5 -11v-244q0 -10 -20.5 -11t-36.5 -1t-36.5 1t-20.5 11zM201 862v244q0 10 20.5 11t36.5 1t36.5 -1t20.5 -11v-244q0 -10 -20.5 -11t-36.5 -1t-36.5 1t-20.5 11z" />
    <glyph glyph-name="semicolon" unicode=";" horiz-adv-x="464" 
d="M82 -162q33 37 51.5 69t27.5 72.5t12 98t3 145.5q0 10 19.5 11.5t35.5 1.5t36 -1.5t20 -11.5q0 -82 -9.5 -145.5t-28 -115.5t-46 -93t-64.5 -78q-14 -13 -41 10q-29 20 -16 37zM170 862v244q0 10 20.5 11t36.5 1t37 -1t21 -11v-244q0 -10 -21 -11t-37 -1t-36.5 1
t-20.5 11z" />
    <glyph glyph-name="less" unicode="&#x3c;" horiz-adv-x="1087" 
d="M199 498q0 16 1 35.5t11 23.5l688 256q4 2 7 -4t4 -14.5t1 -18.5v-18q0 -16 -1 -37t-11 -25l-586 -204l586 -193q10 -4 11 -21.5t1 -33.5t-1 -39t-11 -19l-688 252q-10 4 -11 23.5t-1 36.5z" />
    <glyph glyph-name="equal" unicode="=" horiz-adv-x="1087" 
d="M178 360q0 16 1 33t11 17h736q10 0 11 -16.5t1 -33.5q0 -16 -1 -32.5t-11 -16.5h-736q-10 0 -11 16.5t-1 32.5zM178 649q0 16 1 32.5t11 16.5h736q10 0 11 -16t1 -33q0 -16 -1 -32.5t-11 -16.5h-736q-10 0 -11 16.5t-1 32.5z" />
    <glyph glyph-name="greater" unicode="&#x3e;" horiz-adv-x="1087" 
d="M211 244q0 16 1 33.5t11 21.5l586 193l-586 204q-10 4 -11 24.5t-1 37.5v18t1 18.5t4 14.5t7 4l688 -256q10 -4 12.5 -23.5t2.5 -35.5t-2 -36t-13 -24l-688 -252q-10 -4 -11 18.5t-1 39.5z" />
    <glyph glyph-name="question" unicode="?" horiz-adv-x="919" 
d="M138 1406q-5 17 3 24q63 45 140 70.5t163 25.5q96 0 163 -31t109 -80t60.5 -112.5t18.5 -131.5q0 -72 -26 -129t-64.5 -107t-82.5 -96t-83 -94.5t-64.5 -100.5t-25.5 -114v-69q0 -10 -18.5 -11t-35.5 -1q-18 0 -34.5 1t-16.5 11v71q0 70 24.5 128.5t61.5 108.5t81 95
t81 92.5t61.5 98.5t24.5 112q0 49 -13.5 94.5t-43 81t-76.5 57t-113 21.5q-72 0 -133 -28.5t-104 -59.5q-6 -4 -18.5 8.5t-23 30t-15.5 34.5zM338 4v244q0 10 20.5 11t36.5 1t37 -1t21 -11v-244q0 -10 -21 -11t-37 -1t-36.5 1t-20.5 11z" />
    <glyph glyph-name="at" unicode="@" horiz-adv-x="1779" 
d="M164 453v288q0 137 47 253t139 199t227.5 130t311.5 47q154 0 266.5 -27.5t193.5 -74.5t133 -106.5t81.5 -123t41 -126t11.5 -113.5v-332q0 -63 -16.5 -120.5t-51.5 -101.5t-87 -69.5t-124 -25.5q-86 0 -140 38.5t-75 83.5q-8 -10 -28.5 -31.5t-54 -44t-80 -39
t-107.5 -16.5q-66 0 -118 20.5t-90 55.5t-58.5 80t-20.5 96v74q0 78 33 128t99.5 77.5t165 38t227.5 10.5q0 117 -47.5 179.5t-163.5 62.5q-59 0 -113.5 -18.5t-108.5 -45.5q-10 -4 -21 7.5t-19.5 26.5t-10.5 31.5t6 20.5q55 31 134 50.5t141 19.5q63 0 119.5 -16.5
t98.5 -54.5t66.5 -99.5t24.5 -149.5v-368q0 -20 7 -44t24.5 -43.5t45 -33t68.5 -13.5q78 0 128.5 60.5t50.5 163.5v342q0 63 -26 146t-96.5 157t-193.5 124t-315 50q-170 0 -287 -43t-190.5 -118t-106.5 -173t-33 -209v-272q0 -109 31 -207t100.5 -174t181 -121t273.5 -45
q86 0 154.5 10t124 24.5t97.5 31l75 30.5q8 4 18 -10t17.5 -32.5t9.5 -35t-6 -18.5q-10 -4 -52.5 -19.5t-107 -32t-148.5 -29.5t-180 -13q-201 0 -335 56t-214 147.5t-113.5 204t-33.5 225.5zM668 399q0 -72 56 -119t142 -47q78 0 136.5 41t89.5 88v273h-140.5t-138 -14.5
t-104.5 -47t-41 -100.5v-74z" />
    <glyph glyph-name="A" unicode="A" horiz-adv-x="1140" 
d="M53 4l457 1493q4 10 24.5 11t36.5 1t38 -1t26 -11l452 -1493q2 -4 -5 -7t-17 -4t-21.5 -1h-19.5q-16 0 -37.5 1t-25.5 11l-109 369h-571l-113 -369q-4 -10 -22.5 -11t-34.5 -1h-18.5t-20 1t-15.5 4q-5 2 -5 5q0 1 1 2zM311 475h512l-252 871z" />
    <glyph glyph-name="B" unicode="B" horiz-adv-x="1210" 
d="M203 0v1501h420q199 0 304 -89t105 -255v-72q0 -117 -64.5 -195.5t-162.5 -103.5q51 -12 99 -36.5t84 -64.5t57.5 -94t21.5 -124v-115q0 -158 -101.5 -255t-308.5 -97h-454zM319 100h312q63 0 121.5 11.5t102.5 40t69.5 78t25.5 126.5v107q0 125 -81 198.5t-234 73.5
h-316v-635zM319 836h314q55 0 107.5 13t91 43t62.5 79t24 121v51q0 55 -15.5 103t-52.5 82t-97.5 53.5t-148.5 19.5h-285v-565z" />
    <glyph glyph-name="C" unicode="C" horiz-adv-x="1134" 
d="M184 379v735q0 111 37 188.5t104.5 128t163 73t213.5 22.5q45 0 95.5 -6.5t99.5 -17.5t93 -25.5t75 -28.5q8 -4 5 -21.5t-10 -36t-17.5 -33t-18.5 -9.5q-74 35 -160 56t-164 21t-149.5 -15t-126.5 -52t-89 -96.5t-34 -147.5v-735q0 -94 35 -153.5t91 -92.5t129 -45
t149 -12q78 0 168 15t161 50q6 2 14.5 -12t14.5 -33.5t8 -37.5q1 -4 1 -7q0 -10 -5 -12q-29 -14 -72 -25.5t-93 -19.5t-101 -13.5t-96 -5.5q-121 0 -217.5 22.5t-164 71t-103.5 125t-36 185.5z" />
    <glyph glyph-name="D" unicode="D" horiz-adv-x="1327" 
d="M203 0v1501h465q254 0 364.5 -107.5t110.5 -312.5v-682q0 -203 -107.5 -301t-349.5 -98h-483zM319 102h373q170 0 252 69t82 228v684q0 154 -83 235t-269 81h-355v-1297z" />
    <glyph glyph-name="E" unicode="E" horiz-adv-x="1044" 
d="M203 0v1501h723q10 0 11 -18.5t1 -34.5t-1 -33.5t-11 -17.5h-607v-561h531q10 0 11 -17.5t1 -34.5q0 -16 -1 -33.5t-11 -17.5h-531v-629h611q10 0 11 -17.5t1 -33.5t-1 -34.5t-11 -18.5h-727z" />
    <glyph glyph-name="F" unicode="F" horiz-adv-x="980" 
d="M203 4v1497h700q10 0 11 -18.5t1 -34.5t-1 -33.5t-11 -17.5h-584v-572h531q10 0 11 -18.5t1 -34.5t-1 -34.5t-11 -18.5h-531v-715q0 -10 -21.5 -11t-37.5 -1t-36.5 1t-20.5 11z" />
    <glyph glyph-name="G" unicode="G" horiz-adv-x="1355" 
d="M184 381v733q0 111 37 188.5t104.5 128t163 73t213.5 22.5q45 0 95.5 -6.5t99.5 -17.5t94 -25.5t76 -28.5q8 -4 5 -21.5t-10 -36t-17.5 -33t-18.5 -9.5q-74 35 -161 54t-165 19q-57 0 -126.5 -11t-130 -43t-101.5 -91t-41 -156v-727q0 -100 40 -161.5t98.5 -95.5t126 -46
t124.5 -12q55 0 123 11t126 44t97 93.5t39 158.5v299h-295q-10 0 -11 18.5t-1 34.5t1 35t11 19h412v-406q0 -109 -37 -185.5t-103.5 -126.5t-158.5 -74t-203 -24t-204 24t-159.5 73t-104.5 125.5t-38 183.5z" />
    <glyph glyph-name="H" unicode="H" horiz-adv-x="1386" 
d="M203 4v1493q0 10 21.5 11t37.5 1t36.5 -1t20.5 -11v-655h748v655q0 10 21.5 11t37.5 1t37 -1t21 -11v-1493q0 -10 -20.5 -11t-37.5 -1q-16 0 -37.5 1t-21.5 11v729h-748v-729q0 -10 -20 -11t-37 -1q-16 0 -37.5 1t-21.5 11z" />
    <glyph glyph-name="I" unicode="I" horiz-adv-x="538" 
d="M221 4v1493q0 10 20.5 11t37.5 1q16 0 37.5 -1t21.5 -11v-1493q0 -10 -21.5 -11t-37.5 -1t-37 1t-21 11z" />
    <glyph glyph-name="J" unicode="J" horiz-adv-x="645" 
d="M45 53q0 16 1 33.5t11 17.5h111q84 0 122 34t38 118v1241q0 10 20.5 11t36.5 1t37.5 -1t21.5 -11v-1247q0 -119 -66.5 -184.5t-215.5 -65.5h-105q-10 0 -11 18.5t-1 34.5z" />
    <glyph glyph-name="K" unicode="K" horiz-adv-x="1140" 
d="M203 4v1493q0 10 22.5 11t38.5 1t35.5 -1t19.5 -11v-778l611 778q8 10 31.5 11t39.5 1h21.5t26 -1t20.5 -4t4 -7l-534 -680l551 -813q1 -1 1 -2q1 -3 -5 -5q-8 -3 -20.5 -4t-26 -1h-21.5q-16 0 -41 1t-33 11l-489 729l-138 -168l2 -561q0 -10 -21.5 -11t-37.5 -1t-36.5 1
t-20.5 11z" />
    <glyph glyph-name="L" unicode="L" horiz-adv-x="985" 
d="M203 0v1497q0 10 20.5 11t36.5 1t37.5 -1t21.5 -11v-1386h644q8 0 10 -20t2 -36t-1 -35.5t-11 -19.5h-760z" />
    <glyph glyph-name="M" unicode="M" horiz-adv-x="1591" 
d="M203 4v1493q0 10 29.5 11t58.5 1q25 0 51.5 -2t30.5 -12l280 -891l75 -240.5t69 -242.5q31 121 68.5 242.5l74.5 240.5l277 893q4 10 25.5 11t49.5 1q31 0 64 -1t33 -11v-1493q0 -10 -21.5 -11t-38.5 -1q-16 0 -34.5 1t-18.5 11v1112q0 70 1 124t5 106h-2l-422 -1342
q-4 -10 -23.5 -11t-41.5 -1q-23 0 -40.5 1t-21.5 11l-420 1346h-2q4 -53 6 -106.5t2 -123.5v-1116q0 -10 -19 -11t-36 -1q-16 0 -37.5 1t-21.5 11z" />
    <glyph glyph-name="N" unicode="N" horiz-adv-x="1411" 
d="M203 4v1493q0 10 28.5 11t59.5 1t58.5 -1t31.5 -11l467 -897l122.5 -234.5l123.5 -234.5h2q-2 98 -3 194.5t-1 194.5v977q0 10 21.5 11t35.5 1q18 0 38.5 -1t20.5 -11v-1493q0 -10 -30.5 -11t-57.5 -1q-20 0 -46.5 1t-31.5 11l-493 936l-115.5 219.5l-116.5 218.5h-2
q4 -98 4 -196.5v-196.5v-981q0 -10 -20 -11t-37 -1q-16 0 -37.5 1t-21.5 11z" />
    <glyph glyph-name="O" unicode="O" horiz-adv-x="1386" 
d="M184 377v743q0 106 37 183t104.5 126.5t161 73t205.5 23.5q113 0 207 -23.5t161.5 -73t104.5 -126t37 -183.5v-743q0 -106 -37 -182t-104.5 -125.5t-161.5 -72t-207 -22.5q-115 0 -208 22.5t-159.5 72t-103.5 125t-37 182.5zM301 377q0 -80 28.5 -137.5t80 -93t124 -53
t158.5 -17.5t159 17.5t125 53t80.5 93t28.5 137.5v743q0 82 -28.5 139.5t-80.5 94.5t-125 53t-159 16t-158.5 -16t-124 -53t-80 -94.5t-28.5 -139.5v-743z" />
    <glyph glyph-name="P" unicode="P" horiz-adv-x="1153" 
d="M201 4v1497h411q117 0 199 -27.5t132 -80t73.5 -125t23.5 -164.5v-133q0 -88 -23.5 -162t-73.5 -128t-132 -84t-199 -30h-293v-563q0 -10 -21.5 -11t-37.5 -1t-37.5 1t-21.5 11zM319 668h283q172 0 247 75.5t75 225.5v135q0 154 -75 225.5t-247 71.5h-283v-733z" />
    <glyph glyph-name="Q" unicode="Q" horiz-adv-x="1427" 
d="M193 377v743q0 106 36.5 183t104 126.5t161 73t205.5 23.5q113 0 207 -23.5t162 -73t104.5 -126t36.5 -183.5v-743q0 -106 -36.5 -182t-104.5 -125.5t-162 -72t-207 -22.5q-115 0 -208 22.5t-159.5 72t-103 125t-36.5 182.5zM309 377q0 -80 29 -137.5t80 -93t123.5 -53
t158.5 -17.5t159 17.5t125 53t81 93t29 137.5v743q0 82 -29 139.5t-81 94.5t-125 53t-159 16t-158.5 -16t-123.5 -53t-80 -94.5t-29 -139.5v-743zM694 -121q0 16 1 31.5t12 17.5q14 4 29.5 6.5t47.5 2.5q55 0 114.5 -19.5t118 -43.5t116 -43t110.5 -19q20 0 39 2t25 2
q14 0 14 -45q0 -41 -17.5 -50.5t-48.5 -9.5q-70 0 -135 20.5t-125.5 44l-116 44t-106.5 20.5q-23 0 -40 -4t-25 -4q-10 0 -11.5 15.5t-1.5 31.5z" />
    <glyph glyph-name="R" unicode="R" horiz-adv-x="1206" 
d="M209 4v1497h412q117 0 198.5 -27.5t131.5 -80t74 -125t24 -164.5v-100q0 -70 -12.5 -131.5t-43 -110.5t-81 -86t-124.5 -55l295 -617q2 -4 -5 -7t-19 -4t-24.5 -1h-20.5q-16 0 -39 1t-27 11l-276 596h-344v-596q0 -10 -21.5 -11t-38.5 -1q-16 0 -37.5 1t-21.5 11z
M328 700h282q172 0 247 73t75 228v103q0 154 -75 225.5t-247 71.5h-282v-701z" />
    <glyph glyph-name="S" unicode="S" horiz-adv-x="1095" 
d="M85 142q5 18 16.5 37.5t22.5 32.5t17 9q31 -23 72 -47t90 -43.5t103.5 -33t107.5 -13.5q156 0 255 82t99 229q0 76 -29.5 127t-78.5 90t-114.5 70l-135.5 66l-133.5 68.5t-121.5 83.5t-88 112.5t-34 150.5q0 166 114.5 264.5t317.5 98.5q111 0 201 -29t158 -63
q6 -4 3 -21.5t-11.5 -36t-18.5 -32t-18 -9.5q-66 41 -151 63.5t-163 22.5q-139 0 -226 -65.5t-87 -188.5q0 -68 30.5 -115.5t79 -84.5t105.5 -65t111 -52l145.5 -73t134 -88t98 -120t37.5 -168q0 -100 -39 -179t-104.5 -134t-152.5 -84t-183 -29q-117 0 -229.5 42
t-196.5 102q-5 4 -5 12q0 4 2 11z" />
    <glyph glyph-name="T" unicode="T" horiz-adv-x="1001" 
d="M10 1452q0 16 1 32.5t12 16.5h956q10 0 11 -16.5t1 -32.5t-1 -33.5t-11 -17.5h-414v-1397q0 -10 -20.5 -11t-36.5 -1t-37.5 1t-21.5 11v1397h-426q-10 0 -11.5 17.5t-1.5 33.5z" />
    <glyph glyph-name="U" unicode="U" horiz-adv-x="1320" 
d="M188 385v1112q0 10 21.5 11t38.5 1q16 0 36.5 -1t20.5 -11v-1122q0 -141 87 -220t265 -79t269.5 78.5t91.5 220.5v1122q0 10 19.5 11t35.5 1t38 -1t22 -11v-1112q0 -82 -27 -156.5t-84 -131t-147.5 -89.5t-217.5 -33t-216 33t-145 89.5t-82 131t-26 156.5z" />
    <glyph glyph-name="V" unicode="V" horiz-adv-x="1140" 
d="M37 1497q-2 4 5 7t16.5 4t20.5 1h19q16 0 39 -1t27 -11l229 -782l87 -300l85 -300h4l85 298.5l87 299.5l230 784q4 10 23.5 11t35.5 1h19.5t20.5 -1t16.5 -4t5.5 -7l-453 -1493q-4 -10 -28.5 -11t-41.5 -1q-16 0 -43.5 1t-31.5 11z" />
    <glyph glyph-name="W" unicode="W" horiz-adv-x="1744" 
d="M74 1497q-2 4 5 7t16 4t20.5 1h19.5q16 0 38 -1t24 -11l178 -752l72.5 -314.5t66.5 -313.5h2q27 158 58.5 313.5t66.5 312.5l166 754q2 10 25.5 11t39.5 1t40 -1t26 -11l182 -752l77 -314.5t69 -313.5h2q29 160 62.5 315.5l66.5 315.5l153 749q2 10 22.5 11t37.5 1
q14 0 38.5 -2t22.5 -10l-332 -1493q-2 -10 -29.5 -11t-43.5 -1t-43 1t-29 11l-195 811l-62.5 261t-59.5 261h-3l-51 -255t-55 -255l-182 -823q-2 -10 -29 -11t-43 -1t-43 1t-29 11z" />
    <glyph glyph-name="X" unicode="X" horiz-adv-x="1134" 
d="M43 4l469 748l-459 745q-4 4 3 7t17.5 4t21.5 1h20q16 0 40.5 -1t30.5 -11l392 -653l385 653q6 10 24.5 11t34.5 1h20.5t23.5 -1t17.5 -4t3.5 -7l-446 -737l451 -756q2 -4 -4.5 -7t-17.5 -4t-22.5 -1h-19.5q-16 0 -38.5 1t-28.5 11l-386 658l-401 -658q-6 -10 -26.5 -11
t-36.5 -1h-20.5t-24 1t-19.5 4q-5 2 -5 4t1 3z" />
    <glyph glyph-name="Y" unicode="Y" horiz-adv-x="1075" 
d="M33 1497q-1 1 -1 3q0 7 22 8q24 1 40 1t40 -1t28 -11l373 -749l385 749q4 10 27.5 11t39.5 1t39 -2q18 -2 18 -8q0 -2 -2 -4l-452 -856v-635q0 -10 -20.5 -11t-37.5 -1q-16 0 -37.5 1t-21.5 11v635z" />
    <glyph glyph-name="Z" unicode="Z" horiz-adv-x="1093" 
d="M72 0v66l784 1329h-750q-10 0 -11 19.5t-1 35.5t1 33.5t11 17.5h898v-69l-779 -1326h785q10 0 11 -19.5t1 -35.5t-1 -33.5t-11 -17.5h-938z" />
    <glyph glyph-name="bracketleft" unicode="[" horiz-adv-x="661" 
d="M197 -276v1837h340q10 0 11 -14.5t1 -30.5t-1 -32t-11 -16h-228v-1652h228q10 0 11 -15.5t1 -31.5t-1 -30.5t-11 -14.5h-340z" />
    <glyph glyph-name="backslash" unicode="\" horiz-adv-x="860" 
d="M100 1497q-2 4 5.5 7t17.5 4t21.5 1h19.5q16 0 38.5 -1t26.5 -11l271.5 -747.5l271.5 -747.5q2 -8 -21.5 -9t-35.5 -1q-20 0 -42 1t-26 11z" />
    <glyph glyph-name="bracketright" unicode="]" horiz-adv-x="661" 
d="M113 -231q0 16 1 31.5t11 15.5h227v1650h-227q-10 0 -11 15.5t-1 31.5t1 31t11 15h340v-1835h-340q-10 0 -11 14t-1 31z" />
    <glyph glyph-name="asciicircum" unicode="^" horiz-adv-x="1087" 
d="M211 764l268 696q4 10 22.5 11.5t41.5 1.5t41 -1.5t22 -11.5l275 -696q2 -4 -4.5 -7t-16.5 -4t-20.5 -1h-18.5q-16 0 -36.5 1t-24.5 11l-221 592l-211 -592q-4 -8 -23.5 -10t-36.5 -2q-16 0 -38.5 1t-18.5 11z" />
    <glyph glyph-name="underscore" unicode="_" horiz-adv-x="835" 
d="M20 -133h795v-123h-795v123z" />
    <glyph glyph-name="grave" unicode="`" horiz-adv-x="983" 
d="M315 1522q-10 12 2.5 18t53.5 6q27 0 40 -1t19 -11l182 -289q8 -10 -4 -13t-35 -3q-41 0 -51 12z" />
    <glyph glyph-name="a" unicode="a" horiz-adv-x="1083" 
d="M106 305v53q0 193 170 270q103 47 277 47q113 0 256 -20v90q0 154 -62.5 219.5t-205.5 65.5q-76 0 -157 -16.5t-144 -50.5q-10 -6 -20.5 7t-17.5 32.5t-8 38t9 22.5q59 29 151 49.5t191 20.5q197 0 286 -98.5t89 -280.5v-750q0 -10 -19.5 -11t-36.5 -1q-16 0 -34.5 1
t-18.5 11v121q-27 -25 -62.5 -50.5t-80.5 -48t-98.5 -37t-112.5 -14.5q-164 0 -257.5 88.5t-93.5 241.5zM217 305q0 -59 20.5 -102t55.5 -71t81 -42t99 -14q104 0 190.5 45t145.5 106v340q-139 20 -244 20q-131 0 -209 -31q-140 -56 -139 -200v-51z" />
    <glyph glyph-name="b" unicode="b" horiz-adv-x="1128" 
d="M164 371v1151q0 10 19.5 11t35.5 1t35.5 -1t19.5 -11v-594q47 90 137.5 147.5t221.5 57.5q76 0 142.5 -26t115.5 -76t76.5 -125t27.5 -173v-358q0 -195 -110.5 -297.5t-309.5 -102.5t-305 102.5t-106 293.5zM274 395q0 -176 79 -248.5t222 -72.5q72 0 129.5 16t97.5 55
t61.5 99.5t21.5 150.5v320q0 86 -22.5 146.5t-60.5 98t-88 54t-106 16.5q-74 0 -135 -26.5t-105 -72.5t-69 -106.5t-25 -126.5v-303z" />
    <glyph glyph-name="c" unicode="c" horiz-adv-x="983" 
d="M135 375v358q0 195 108.5 297.5t301.5 102.5q111 0 191.5 -33t148.5 -82q10 -8 7 -24.5t-12.5 -33t-21.5 -26.5t-20 -4q-10 6 -36 23.5t-63 36t-85 31.5t-101 13q-147 0 -227 -78.5t-80 -240.5v-322q0 -160 80 -239.5t227 -79.5q106 0 178 36.5t115 69.5q8 6 19.5 -3
t20.5 -23.5t13 -29.5q2 -6 2 -11q0 -7 -4 -11q-51 -47 -146 -87t-206 -40q-193 0 -301.5 103.5t-108.5 296.5z" />
    <glyph glyph-name="d" unicode="d" horiz-adv-x="1144" 
d="M133 375v358q0 98 28.5 173t79 125t121 76t156.5 26q131 0 215 -50.5t121 -115.5v555q0 10 19.5 11t35.5 1t36 -1t20 -11v-1518q0 -10 -19.5 -11t-36.5 -1q-16 0 -34.5 1t-18.5 11v154q-18 -33 -48 -66t-72 -58.5t-95 -42t-117 -16.5q-176 0 -283.5 100.5t-107.5 299.5z
M244 393q0 -86 22.5 -146.5t64.5 -98t99 -54t127 -16.5q63 0 117.5 22.5t94.5 61.5t62.5 89t22.5 105v383q0 70 -24.5 124.5t-66.5 92t-100.5 58t-125.5 20.5q-66 0 -119 -16.5t-92 -54t-60.5 -99t-21.5 -149.5v-322z" />
    <glyph glyph-name="e" unicode="e" horiz-adv-x="1093" 
d="M133 385v338q0 94 31 170t86 129t130 82t161 29q94 0 170.5 -30t132 -85t86.5 -135t31 -183v-200h-717v-107q0 -147 77.5 -232t237.5 -85q121 0 199 26.5t137 59.5q6 2 17.5 -10.5t20.5 -29t13 -32.5t-4 -20q-78 -45 -173 -70t-206 -25q-205 0 -317.5 107.5t-112.5 302.5
zM244 590h606v121q0 82 -24.5 143t-66.5 101t-98.5 60.5t-119.5 20.5q-61 0 -114.5 -20.5t-94.5 -60.5t-64.5 -99t-23.5 -139v-127z" />
    <glyph glyph-name="f" unicode="f" horiz-adv-x="616" 
d="M59 1034q0 16 1 30.5t12 14.5h151v221q0 100 56.5 163t160.5 63h115q6 0 9 -7.5t3 -41.5q0 -33 -3 -40t-9 -7h-98q-66 0 -94.5 -39t-28.5 -111v-201h188q10 0 11.5 -14.5t1.5 -30.5t-1.5 -31.5t-11.5 -15.5h-188v-983q0 -10 -19.5 -11t-35.5 -1t-36 1t-20 11v983h-151
q-10 0 -11.5 15.5t-1.5 31.5z" />
    <glyph glyph-name="g" unicode="g" horiz-adv-x="1140" 
d="M135 375v358q0 199 107.5 299.5t283.5 100.5q129 0 212 -51.5t120 -114.5v139q0 10 18.5 11t34.5 1t36 -1t20 -11v-1067q0 -233 -107.5 -349t-310.5 -116q-49 0 -98.5 9t-93.5 22.5t-80.5 29t-61.5 29.5q-8 4 -4 21.5t13 36t20.5 32t19.5 8.5q16 -10 45 -24t67 -28.5
t84 -25t99 -10.5q137 0 217 75t80 247v147q-37 -66 -121 -117t-215 -51q-86 0 -156.5 26t-120.5 76t-79 124.5t-29 173.5zM246 393q0 -88 22.5 -149.5t61.5 -99.5t93 -54t116 -16q68 0 126 20.5t100 58t66.5 93t24.5 125.5v383q0 55 -23.5 105t-65.5 88t-99 60.5t-125 22.5
q-63 0 -117.5 -16.5t-94.5 -54t-62.5 -98t-22.5 -146.5v-322z" />
    <glyph glyph-name="h" unicode="h" horiz-adv-x="1130" 
d="M180 4v1518q0 10 20.5 11t37.5 1q16 0 34.5 -1t18.5 -11v-615q66 94 164 160t221 66q135 0 213 -90.5t78 -237.5v-801q0 -10 -19.5 -11t-36.5 -1q-16 0 -35.5 1t-19.5 11v772q0 123 -62.5 184.5t-150.5 61.5q-76 0 -140.5 -38t-111.5 -83t-73 -82l-27 -37v-778
q0 -10 -19.5 -11t-35.5 -1t-36 1t-20 11z" />
    <glyph glyph-name="i" unicode="i" horiz-adv-x="471" 
d="M180 4v1102q0 10 19.5 11t36.5 1q16 0 35.5 -1t19.5 -11v-1102q0 -10 -19.5 -11t-35.5 -1t-36 1t-20 11zM180 1305v217q0 10 19.5 11t36.5 1q16 0 35.5 -1t19.5 -11v-217q0 -10 -19.5 -11.5t-35.5 -1.5t-36 1t-20 12z" />
    <glyph glyph-name="j" unicode="j" horiz-adv-x="489" 
d="M-4 -371q0 16 1 31.5t11 15.5h84q45 0 76 21.5t31 77.5v1329q0 10 19.5 11t35.5 1t35.5 -1t19.5 -11v-1329q0 -88 -45 -140.5t-137 -52.5h-119q-6 0 -9 15.5t-3 31.5zM199 1305v217q0 10 19.5 11t35.5 1t35.5 -1t19.5 -11v-217q0 -10 -19.5 -11.5t-35.5 -1.5t-35.5 1
t-19.5 12z" />
    <glyph glyph-name="k" unicode="k" horiz-adv-x="946" 
d="M180 4v1518q0 10 19.5 11t36.5 1q16 0 35.5 -1t19.5 -11v-928l457 512q8 10 28.5 11t36.5 1h21.5t25.5 -1t20.5 -4t4.5 -7l-447 -506l475 -596q2 -4 -5 -7t-19 -4t-25.5 -1h-21.5q-16 0 -39 1t-29 11l-418 524l-65 -69v-455q0 -10 -20.5 -11t-37.5 -1q-16 0 -34.5 1
t-18.5 11z" />
    <glyph glyph-name="l" unicode="l" horiz-adv-x="528" 
d="M176 211v1311q0 10 19.5 11t35.5 1t36 -1t20 -11v-1307q0 -66 30.5 -93.5t98.5 -27.5h55q10 0 14 -7t4 -38q0 -35 -4 -42t-14 -7h-84q-115 0 -163 59.5t-48 151.5z" />
    <glyph glyph-name="m" unicode="m" horiz-adv-x="1658" 
d="M180 4v1102q0 10 18.5 11t34.5 1t36 -1t20 -11v-213q27 43 61.5 86t76.5 77t91 55.5t103 21.5q59 0 104 -23t77 -57.5t51 -76.5t26 -83q31 49 68.5 92t80.5 76t90 52.5t96 19.5q127 0 204 -83t77 -231v-815q0 -10 -19.5 -11t-35.5 -1t-36 1t-20 11v772q0 123 -49 183.5
t-135 60.5q-45 0 -88 -20.5t-83 -55.5t-74.5 -80t-61.5 -94v-766q0 -10 -19.5 -11t-35.5 -1t-36 1t-20 11v772q0 119 -54 181.5t-134 62.5q-45 0 -89 -24.5t-84 -62.5t-73 -83t-57 -86v-760q0 -10 -19.5 -11t-35.5 -1t-36 1t-20 11z" />
    <glyph glyph-name="n" unicode="n" horiz-adv-x="1130" 
d="M180 4v1102q0 10 19.5 11t36.5 1q16 0 34.5 -1t18.5 -11v-199q66 94 165 160t222 66q135 0 213 -90.5t78 -237.5v-801q0 -10 -19.5 -11t-36.5 -1q-16 0 -35.5 1t-19.5 11v752q0 137 -56.5 201.5t-156.5 64.5q-53 0 -103.5 -20.5t-95.5 -54.5t-83.5 -77t-69.5 -86v-780
q0 -10 -19.5 -11t-35.5 -1t-36 1t-20 11z" />
    <glyph glyph-name="o" unicode="o" horiz-adv-x="1122" 
d="M133 375v358q0 195 110.5 297.5t315.5 102.5t317.5 -102.5t112.5 -297.5v-358q0 -193 -112.5 -296.5t-317.5 -103.5t-315.5 103.5t-110.5 296.5zM244 393q0 -174 84 -246.5t231 -72.5q150 0 235 71.5t85 247.5v322q0 174 -85 245.5t-235 71.5q-147 0 -231 -71.5
t-84 -245.5v-322z" />
    <glyph glyph-name="p" unicode="p" horiz-adv-x="1144" 
d="M180 -406v1512q0 10 19.5 11t36.5 1q16 0 34.5 -1t18.5 -11v-156q18 33 48 65t72 58.5t94 43t118 16.5q176 0 283.5 -100.5t107.5 -299.5v-358q0 -98 -29 -173t-79 -125t-120.5 -76t-156.5 -26q-131 0 -215 51.5t-121 116.5v-549q0 -10 -19.5 -11t-35.5 -1t-36 1t-20 11z
M291 371q0 -70 24.5 -125.5t66.5 -93t100.5 -58t125.5 -20.5q63 0 117.5 16t93.5 54t60.5 99.5t21.5 149.5v322q0 86 -23.5 146.5t-64.5 98t-98 54t-127 16.5q-63 0 -117.5 -22.5t-94.5 -61.5t-62.5 -89t-22.5 -105v-381z" />
    <glyph glyph-name="q" unicode="q" horiz-adv-x="1144" 
d="M133 375v358q0 199 107.5 299.5t283.5 100.5q63 0 116.5 -16.5t95.5 -43t72 -58.5t48 -65v156q0 10 18.5 11t34.5 1t36 -1t20 -11v-1512q0 -10 -19.5 -11t-36.5 -1q-16 0 -35.5 1t-19.5 11v549q-37 -66 -121 -117t-215 -51q-86 0 -156.5 26t-121 76t-79 124.5
t-28.5 173.5zM244 393q0 -88 21.5 -149.5t60.5 -99.5t92 -54t119 -16q68 0 126 20.5t100 58t66.5 93t24.5 125.5v381q0 55 -22.5 105t-62.5 89t-94.5 61.5t-117.5 22.5q-70 0 -127 -16.5t-99 -54t-64.5 -98t-22.5 -146.5v-322z" />
    <glyph glyph-name="r" unicode="r" horiz-adv-x="669" 
d="M180 4v1102q0 10 18.5 11t34.5 1t34 -1t18 -11v-248q45 70 83 119t72.5 79.5t71.5 44t84 13.5h41q10 0 11 -21.5t1 -37.5t-3 -36t-13 -20h-66q-68 0 -130 -62.5t-148 -191.5v-741q0 -10 -19.5 -11t-36.5 -1q-16 0 -34.5 1t-18.5 11z" />
    <glyph glyph-name="s" unicode="s" horiz-adv-x="870" 
d="M96 80q4 16 13.5 33.5t20.5 31t17 9.5q53 -31 125 -55.5t144 -24.5q57 0 104 17.5t79 48t49.5 69.5t17.5 82q0 78 -41 127t-101.5 83t-131 61.5t-131 65.5t-101.5 92t-41 142q0 117 88 194t248 77q90 0 158.5 -15.5t103.5 -32.5q6 -4 4 -20t-8 -33.5t-14.5 -31
t-12.5 -11.5q-57 20 -109.5 32.5t-130.5 12.5q-106 0 -161.5 -52t-55.5 -122q0 -59 41 -98t101.5 -71t131 -61.5t131 -72.5t101.5 -105.5t41 -158.5q0 -59 -23.5 -116.5t-69.5 -102.5t-112.5 -72t-154.5 -27q-39 0 -82 7.5t-86 18.5t-82 26.5t-68 31.5q-4 2 -4 9q0 5 2 12z
" />
    <glyph glyph-name="t" unicode="t" horiz-adv-x="690" 
d="M51 1032q0 16 2 31.5t13 15.5h155v269q0 10 19.5 11t35.5 1t36 -1t20 -11v-269h241q10 0 11.5 -14t1.5 -33q0 -18 -1 -31.5t-12 -13.5h-241v-772q0 -66 29.5 -92.5t97.5 -26.5h112q10 0 14.5 -7t4.5 -38q0 -35 -4 -43t-15 -8h-139q-115 0 -163 60.5t-48 150.5v776h-155
q-10 0 -12.5 14.5t-2.5 30.5z" />
    <glyph glyph-name="u" unicode="u" horiz-adv-x="1130" 
d="M164 303v803q0 10 19.5 11t35.5 1t35.5 -1t19.5 -11v-774q0 -123 62.5 -184.5t150.5 -61.5q76 0 140.5 38t111.5 84t74 83l27 37v778q0 10 19.5 11t35.5 1t35.5 -1t19.5 -11v-1102q0 -10 -19.5 -11t-35.5 -1t-34.5 1t-18.5 11v199q-66 -94 -165 -161t-222 -67
q-135 0 -213 90.5t-78 237.5z" />
    <glyph glyph-name="v" unicode="v" horiz-adv-x="917" 
d="M33 1106q-1 1 -1 2q0 3 5 5q6 3 16 4t20.5 1h18.5q16 0 37 -1t25 -11l182 -586l62.5 -209.5l60.5 -210.5h4l59.5 211l63.5 211l182 584q4 10 23.5 11t35.5 1h18.5t19.5 -1t15.5 -4t4.5 -7l-363 -1102q-4 -10 -27.5 -11t-39.5 -1t-38 1t-26 11z" />
    <glyph glyph-name="w" unicode="w" horiz-adv-x="1343" 
d="M63 1106q-2 10 20.5 11t39.5 1q16 0 36.5 -1t22.5 -11l125 -574l45.5 -208.5t38.5 -208.5h4q18 104 42 212.5l46 207.5l131 571q2 10 20.5 11t35.5 1q16 0 35.5 -1t21.5 -11l123 -574q23 -102 44 -207.5t38 -207.5h4q16 100 43 208.5t49 209.5l135 571q2 10 21.5 11
t36.5 1h18t20.5 -1t16.5 -4q4 -2 4 -5v-2l-287 -1102q-4 -10 -27.5 -11t-39.5 -1t-39 1t-25 11l-131 598q-16 76 -33.5 170t-29.5 172h-4q-14 -80 -33 -172l-37 -172l-139 -596q-2 -10 -27 -11t-41 -1t-37.5 1t-23.5 11z" />
    <glyph glyph-name="x" unicode="x" horiz-adv-x="894" 
d="M63 1106q-1 1 -1 3q0 8 22 8q25 1 41 1t35.5 -1t23.5 -11l267 -457l247 457q4 8 21.5 10t34.5 2q16 0 38.5 -1t18.5 -11l-303 -545l313 -557q1 -2 1 -3q0 -7 -20 -8q-22 -1 -38 -1t-33.5 1t-23.5 11l-263 477l-258 -477q-4 -10 -22.5 -11t-34.5 -1h-19.5t-20.5 1t-15 4
t-2 7l315 559z" />
    <glyph glyph-name="y" unicode="y" horiz-adv-x="946" 
d="M35 1106q-1 1 -1 2q0 3 5 5q6 3 16.5 4t20.5 1h18q16 0 37 -1t25 -11l323 -956l318 956q4 10 25.5 11t37.5 1h18.5t20.5 -2t16.5 -4t4.5 -6l-529 -1505q-4 -10 -23.5 -11.5t-35.5 -1.5h-18.5t-20.5 1t-16.5 3t-4.5 9l148 411z" />
    <glyph glyph-name="z" unicode="z" horiz-adv-x="880" 
d="M66 0v57l583 949h-545q-10 0 -11 16t-1 33q0 16 1 32.5t11 16.5h697v-57l-586 -949h608q8 0 10.5 -16t2.5 -33q0 -16 -3.5 -32.5t-9.5 -16.5h-757z" />
    <glyph glyph-name="braceleft" unicode="{" horiz-adv-x="694" 
d="M78 639q0 14 1 31.5t11 19.5q98 14 156.5 65.5t58.5 145.5v311q0 72 4 135.5t24.5 110.5t61.5 74t113 27h92q10 0 11 -16.5t1 -33.5q0 -16 -1 -32.5t-11 -16.5h-74q-53 0 -82.5 -32.5t-29.5 -90.5v-444q0 -111 -62.5 -173.5t-163.5 -76.5v-6q98 -14 162 -78.5t64 -175.5
v-313v-125q0 -57 29.5 -89t82.5 -32h74q10 0 11 -15.5t1 -31.5t-1 -34.5t-11 -18.5h-92q-61 0 -101 21.5t-62.5 59t-31 90t-8.5 113.5v377q0 88 -58.5 137t-156.5 64q-10 2 -11 19.5t-1 33.5z" />
    <glyph glyph-name="bar" unicode="|" horiz-adv-x="462" 
d="M176 -526v2152q0 10 18.5 11t34.5 1h36t20 -10v-2154q0 -10 -20 -11.5t-36 -1.5t-34.5 1t-18.5 12z" />
    <glyph glyph-name="braceright" unicode="}" horiz-adv-x="694" 
d="M82 -221q0 16 1 31.5t11 15.5h74q53 0 83 31.5t30 89.5v127v313q0 111 63.5 175.5t161.5 78.5v6q-100 14 -162.5 76.5t-62.5 173.5v440q0 57 -30 90t-83 33h-74q-10 0 -11 16.5t-1 32.5t1 33t11 17h92q72 0 113 -27t60.5 -73t24.5 -109.5t5 -135.5v-309q0 -94 58.5 -145
t156.5 -66q10 -2 11 -19.5t1 -31.5q0 -16 -1 -33.5t-11 -19.5q-98 -14 -156.5 -63.5t-58.5 -137.5v-379q0 -61 -8 -113.5t-30.5 -90t-62.5 -59t-102 -21.5h-92q-10 0 -11 18t-1 35z" />
    <glyph glyph-name="asciitilde" unicode="~" horiz-adv-x="1087" 
d="M209 543q6 14 22.5 37.5t42 47t58.5 41t74 17.5q51 0 91 -19.5t73.5 -43t65.5 -43t66 -19.5q35 0 62 16.5t45 37t29.5 41t17.5 28.5q4 6 15.5 2t22.5 -13t19.5 -19.5t6.5 -16.5q-10 -23 -31 -52.5t-48.5 -55t-62.5 -43t-73 -17.5q-55 0 -94.5 19.5t-72 43l-61 43
t-65.5 19.5q-53 0 -84 -27.5t-58 -77.5q-4 -6 -14 0.5t-21.5 15.5t-19.5 20.5t-6 17.5z" />
    <glyph glyph-name="uni00A0" unicode="&#xa0;" horiz-adv-x="221" 
 />
    <glyph glyph-name="exclamdown" unicode="&#xa1;" horiz-adv-x="518" 
d="M195 10l16 1028q0 10 16.5 12.5t32.5 2.5t33.5 -2t17.5 -13l17 -1028q0 -10 -23.5 -14t-42.5 -4q-20 0 -43.5 3t-23.5 15zM201 1303v194q0 10 20.5 11t36.5 1t36.5 -1t20.5 -11v-194q0 -10 -20.5 -11.5t-36.5 -1.5t-36.5 1t-20.5 12z" />
    <glyph glyph-name="cent" unicode="&#xa2;" horiz-adv-x="1191" 
d="M233 375v360q0 180 93.5 280.5t259.5 117.5v157q0 10 19.5 11.5t35.5 1.5t35.5 -1.5t19.5 -11.5v-157q90 -8 159 -39t128 -74q10 -8 6 -24.5t-14 -33t-22.5 -26.5t-20.5 -4q-10 6 -35 23.5t-61.5 36t-83.5 31.5t-101 13q-147 0 -227 -78.5t-80 -240.5v-324
q0 -160 80 -239.5t227 -79.5q53 0 97.5 10t79 26.5t62.5 35t50 34.5q8 6 20.5 -3t22.5 -23.5t14 -29.5t-2 -22q-45 -41 -123.5 -76.5t-175.5 -45.5v-158q0 -10 -19.5 -11t-35.5 -1t-34.5 1t-18.5 11v155q-160 14 -257.5 115t-97.5 283z" />
    <glyph glyph-name="sterling" unicode="&#xa3;" 
d="M176 727q0 16 1 31.5t11 15.5h154q-8 94 -23.5 184.5t-15.5 188.5q0 100 32 172t88 118t133 67.5t165 21.5q68 0 131 -15.5t112.5 -36t82 -38t40.5 -23.5q10 -6 3 -24.5t-17 -32.5q-10 -16 -20.5 -28.5t-20.5 -6.5q-41 27 -79 46t-76.5 32.5t-80.5 20.5t-94 7
q-49 0 -101 -14t-93 -47t-67.5 -86t-26.5 -129q0 -90 15 -177t30 -200h336q12 0 12 -16.5v-32.5t-1 -32.5t-11 -16.5h-332q4 -176 -28 -318.5t-79 -259.5h678q10 0 11.5 -16t1.5 -33q0 -16 -1.5 -32.5t-11.5 -16.5h-829q33 80 60.5 168t48 176t29.5 173t5 159h-158
q-12 0 -13 17.5t-1 33.5z" />
    <glyph glyph-name="currency" unicode="&#xa4;" 
d="M129 596q0 16 1 31.5t11 15.5h138v191h-138q-10 0 -11 15t-1 32q0 16 1 31.5t11 15.5h138v186q0 111 36.5 188.5t104 128t163 73t214.5 22.5q45 0 95 -6.5t99 -17.5t94 -25.5t76 -28.5q8 -4 5 -21.5t-10 -36t-17.5 -33t-18.5 -9.5q-74 35 -161 56t-164 21
q-74 0 -145.5 -12t-128 -46t-91.5 -94.5t-35 -158.5v-186h482q10 0 11 -15.5t1 -31.5t-1 -31.5t-11 -15.5h-482v-191h482q10 0 11 -15.5t1 -31.5t-1 -31.5t-11 -15.5h-482v-170q0 -94 35 -153.5t91.5 -92.5t128 -45t145.5 -12q78 0 166 15t159 50q6 2 14.5 -12t14.5 -33.5
t8 -37t-4 -19.5q-29 -14 -72 -25.5t-92 -19.5t-99 -13.5t-95 -5.5q-121 0 -216.5 22.5t-162 71t-102 125t-35.5 185.5v170h-138q-10 0 -11 15.5t-1 31.5z" />
    <glyph glyph-name="yen" unicode="&#xa5;" 
d="M147 1497q-4 10 21 11t41 1t38.5 -1t26.5 -11l186.5 -374.5l186.5 -374.5l192.5 374.5l192.5 374.5q4 10 28.5 11t41.5 1q16 0 38.5 -2t16.5 -12l-226.5 -428l-225.5 -428v-55h315q10 0 11 -16.5t1 -32.5t-1 -33t-11 -17h-315v-481q0 -10 -20.5 -11t-37.5 -1
q-16 0 -37.5 1t-21.5 11v481h-303q-10 0 -11.5 16.5t-1.5 33.5q0 16 1 32.5t12 16.5h303v55l-220.5 429z" />
    <glyph glyph-name="brokenbar" unicode="&#xa6;" horiz-adv-x="1531" 
d="M236 422q0 10 19 11t36 1q16 0 34.5 -1t18.5 -11v-952q0 -10 -19.5 -11.5t-35.5 -1.5t-34.5 1t-18.5 12v952zM236 674v952q0 10 19 11t36 1q16 0 34.5 -1t18.5 -11v-952q0 -10 -19.5 -11t-35.5 -1t-34.5 1t-18.5 11z" />
    <glyph glyph-name="section" unicode="&#xa7;" horiz-adv-x="999" 
d="M150 -91.5q4 17.5 13 37t20.5 33t17.5 7.5q49 -29 106.5 -56.5t149.5 -27.5q45 0 91 12t83 36.5t59.5 63.5t22.5 92q0 100 -70 161t-199 114q-141 59 -200.5 137t-59.5 184q0 45 15.5 91.5t45 85.5t73.5 66.5t104 35.5q-55 18 -104.5 45t-85 62.5t-56 83t-20.5 106.5
q0 57 22.5 106.5t66.5 86t107.5 57t143.5 20.5q86 0 151.5 -16t102.5 -33q6 -4 4 -19.5t-9.5 -32.5t-17.5 -29.5t-16 -10.5q-66 23 -119 35t-103 12q-119 0 -172 -53t-53 -127q0 -37 10.5 -66.5t38 -57.5t75.5 -54.5t126 -57.5q154 -59 219.5 -142t65.5 -202
q0 -68 -24.5 -119t-60.5 -85.5t-75 -52t-68 -15.5q51 -23 96.5 -52.5t80 -67.5t55 -83t20.5 -96q0 -68 -25.5 -125t-72.5 -100t-111.5 -68t-140.5 -25q-96 0 -172 19.5t-149 62.5q-6 4 -2 21.5zM283 702q0 -43 15 -80.5t44 -66.5t66.5 -46t80.5 -17t81 15t67 41.5t46 64.5
t17 81q0 88 -58 148.5t-146 64.5q-43 0 -82 -15t-68 -43t-45 -66t-18 -81z" />
    <glyph glyph-name="dieresis" unicode="&#xa8;" horiz-adv-x="1116" 
d="M334 1296v191q0 10 20.5 12t36.5 2t37 -2t21 -12v-191q0 -10 -21 -12t-37 -2t-36.5 2t-20.5 12zM668 1296v191q0 10 20.5 12t36.5 2t36.5 -2t20.5 -12v-191q0 -10 -20.5 -12t-36.5 -2t-36.5 2t-20.5 12z" />
    <glyph glyph-name="copyright" unicode="&#xa9;" horiz-adv-x="1597" 
d="M66 731q0 152 57 285t156.5 232.5t232.5 156.5t285 57t284.5 -57t232 -156.5t157 -232.5t57.5 -285t-57.5 -285t-157 -232t-232.5 -156.5t-284 -57.5q-152 0 -285 57.5t-232.5 156.5t-156.5 232.5t-57 284.5zM152 731q0 -133 50 -251t138 -206t206 -139t251 -51t250.5 51
t205.5 139t139.5 206t51.5 251t-51.5 251t-139.5 205t-205.5 138t-250.5 51t-251 -51t-206 -138t-138 -205t-50 -251zM492 582v268q0 145 81.5 222t223.5 77q84 0 144 -24.5t112 -61.5q6 -6 2 -20.5t-12.5 -30t-18.5 -25.5t-16 -4l-24.5 16.5t-44.5 24.5t-59.5 21.5
t-70.5 9.5q-117 0 -167 -53.5t-50 -170.5v-233q0 -115 51 -169t166 -54q74 0 124 25.5t81 48.5q6 6 15 -3.5t18.5 -22.5t14.5 -27.5t-1 -18.5q-39 -35 -109.5 -64.5t-154.5 -29.5q-141 0 -223 76.5t-82 222.5z" />
    <glyph glyph-name="ordfeminine" unicode="&#xaa;" horiz-adv-x="880" 
d="M127 940v61q0 104 89 157.5t278 53.5h137q0 115 -41 164t-152 49q-63 0 -125.5 -18t-107.5 -41q-10 -4 -18.5 4t-12.5 25q-4 16 -9 30.5t5 18.5q49 27 123 46t151 19q59 0 110.5 -13t90.5 -46t60.5 -85t21.5 -132v-488q0 -10 -16.5 -11t-32.5 -1t-31.5 1t-15.5 11v91
q-45 -51 -113.5 -83t-138.5 -32q-117 0 -184.5 60.5t-67.5 158.5zM227 948q0 -68 45 -105.5t121 -37.5q57 0 118.5 24.5t119.5 92.5v219h-123q-145 0 -213 -32t-68 -105v-56z" />
    <glyph glyph-name="guillemotleft" unicode="&#xab;" horiz-adv-x="1148" 
d="M92 647l328 469q2 6 19.5 -2t36 -21.5t32.5 -26.5t10 -17l-282 -402l282 -399q4 -6 -10 -19.5t-32.5 -26t-36 -20.5t-19.5 -2zM498 647l327 469q2 6 19.5 -2t36 -21.5t33 -26.5t10.5 -17l-283 -402l283 -399q4 -6 -10.5 -19.5t-33 -26t-36 -20.5t-19.5 -2z" />
    <glyph glyph-name="logicalnot" unicode="&#xac;" 
d="M154 698q0 16 1 33t11 17h948v-445q0 -10 -13.5 -11t-29.5 -1t-32.5 1t-16.5 11v346h-856q-10 0 -11 16.5t-1 32.5z" />
    <glyph glyph-name="uni00AD" unicode="&#xad;" horiz-adv-x="960" 
d="M164 608q0 16 1 32.5t11 16.5h608q10 0 11.5 -16t1.5 -33q0 -16 -1 -32.5t-12 -16.5h-608q-10 0 -11 16.5t-1 32.5z" />
    <glyph glyph-name="registered" unicode="&#xae;" horiz-adv-x="1124" 
d="M133 1096q0 88 34 166.5t92 137t136 92.5t168 34q88 0 167 -34t136.5 -92.5t91 -137t33.5 -166.5q0 -90 -33.5 -168t-91 -136.5t-136.5 -92t-167 -33.5q-90 0 -168 33.5t-136 92t-92 136.5t-34 168zM201 1096q0 -74 28.5 -139.5t77.5 -114.5t114.5 -78t141.5 -29
q74 0 139.5 29t114.5 78t78 114.5t29 139.5q0 76 -29 141.5t-78 114.5t-114.5 77.5t-139.5 28.5q-76 0 -141.5 -28.5t-114.5 -77.5t-77.5 -115t-28.5 -141zM414 887v444h161q78 0 115 -29.5t37 -105.5v-31q0 -47 -19.5 -73.5t-50.5 -40.5l84 -160q4 -10 -3 -12t-31 -2
q-37 0 -41 10l-76 149h-101v-149q0 -6 -7 -9.5t-31 -3.5q-25 0 -31 3.5t-6 9.5zM487 1100h86q47 0 63.5 14t16.5 51v31q0 41 -16 54.5t-64 13.5h-86v-164z" />
    <glyph glyph-name="macron" unicode="&#xaf;" horiz-adv-x="983" 
d="M334 1403q0 16 1 32.5t11 16.5h453q12 0 12 -16.5v-32.5t-1 -32.5t-11 -16.5h-453q-10 0 -11 16t-1 33z" />
    <glyph glyph-name="degree" unicode="&#xb0;" horiz-adv-x="878" 
d="M123 1208q0 66 25.5 124.5t68.5 101.5t100.5 67.5t122.5 24.5q66 0 123.5 -24.5t100.5 -67.5t67.5 -101.5t24.5 -124.5t-24.5 -123t-67.5 -100t-100.5 -67.5t-123.5 -24.5t-123 24.5t-100 67.5t-68.5 100.5t-25.5 122.5zM225 1206q0 -43 16.5 -82t46 -67.5t68.5 -45
t82 -16.5q45 0 84 16.5t67.5 45t46 67.5t17.5 82q0 45 -17.5 84t-46 69t-67.5 46t-84 16q-43 0 -82 -16t-68.5 -46t-46 -69t-16.5 -84z" />
    <glyph glyph-name="plusminus" unicode="&#xb1;" 
d="M125 51q0 16 1 34.5t11 18.5h455v439h-455q-10 0 -11 16t-1 33q0 16 1 32.5t11 16.5h455v465q0 10 17.5 11t33.5 1t34.5 -1t18.5 -11v-465h469q10 0 11.5 -16.5t1.5 -32.5t-1 -32.5t-12 -16.5h-469v-439h467q10 0 11.5 -18t1.5 -35q0 -16 -1 -33.5t-12 -17.5h-1026
q-10 0 -11 17.5t-1 33.5z" />
    <glyph glyph-name="uni00B2" unicode="&#xb2;" horiz-adv-x="706" 
d="M100 733v101q0 55 10.5 100t37 82t69.5 67.5t111 59.5q94 39 131 75.5t35 100.5q-4 115 -146 115q-41 0 -92 -17.5t-86 -34.5q-8 -4 -17.5 7.5t-16.5 28t-8 32.5t5 20q41 23 105.5 39.5t117.5 16.5q98 0 169 -53.5t71 -151.5q0 -49 -12.5 -86t-41 -68.5t-77.5 -60.5
t-123 -62q-49 -23 -76.5 -47t-41 -50.5t-16.5 -55.5t-3 -60h377q10 0 11 -15t1 -32q0 -16 -1 -33.5t-11 -17.5h-482z" />
    <glyph glyph-name="uni00B3" unicode="&#xb3;" horiz-adv-x="706" 
d="M94 797.5q4 15.5 12.5 33t17.5 29.5t13 10q12 -6 30.5 -17t42 -22.5t49.5 -18.5t52 -7q33 0 58 8q41 12 65.5 41t24.5 76v37q0 14 -8.5 32.5t-25.5 35t-46 27.5t-70 11h-47q-10 0 -11 18.5t-1 34.5t1 35t11 19h80q27 0 48.5 10t34.5 25.5t20.5 32t7.5 28.5v55
q0 59 -41 83t-88 24q-59 0 -102.5 -24.5t-63.5 -37.5q-8 -4 -18.5 7.5t-18.5 27.5t-11.5 31.5t3.5 19.5q33 23 86 43.5t112 20.5q113 0 179.5 -50.5t66.5 -172.5v-27q0 -41 -15.5 -68.5t-34 -46t-35.5 -27l-21 -10.5q2 0 20 -6t38.5 -22.5t38 -46t17.5 -74.5v-45
q0 -43 -17.5 -82t-50 -67.5t-76.5 -46t-97 -17.5q-45 0 -85 9t-71 19.5t-49.5 20.5t-22.5 14q-6 2 -2 17.5z" />
    <glyph glyph-name="acute" unicode="&#xb4;" horiz-adv-x="983" 
d="M313 1245l183 289q6 10 19 11t40 1q41 0 53.5 -6t1.5 -18l-207 -281q-10 -12 -51 -12q-23 0 -35 3t-4 13z" />
    <glyph glyph-name="uni00B5" unicode="&#xb5;" horiz-adv-x="1144" 
d="M180 -406v1512q0 10 18.5 11t34.5 1t36 -1t20 -11v-727q0 -66 22.5 -120t59.5 -92t85 -59.5t97 -21.5q72 0 128 38t94 84t59 83l20 37v778q0 10 19.5 11t35.5 1t36 -1t20 -11v-1102q0 -10 -19.5 -11t-36.5 -1q-16 0 -34.5 1t-18.5 11v199q-53 -109 -127 -168.5
t-176 -59.5q-88 0 -159.5 47.5t-102.5 120.5v-549q0 -10 -19.5 -11t-35.5 -1t-36 1t-20 11z" />
    <glyph glyph-name="paragraph" unicode="&#xb6;" horiz-adv-x="974" 
d="M92 1079q-2 82 24.5 163t89 143.5t163 101.5t245.5 39q59 0 115.5 -3t95.5 -10v-1671q0 -8 -19.5 -9t-29.5 -1t-33.5 1t-23.5 9v1606h-129v-1606q0 -8 -23.5 -9t-34.5 -1q-10 0 -28.5 1t-18.5 9v854h-14q-63 0 -130 23.5t-121 72t-90 120t-38 167.5z" />
    <glyph glyph-name="periodcentered" unicode="&#xb7;" horiz-adv-x="464" 
d="M164 504v244q0 10 20.5 11t36.5 1t37 -1t21 -11v-244q0 -10 -21 -11t-37 -1t-36.5 1t-20.5 11z" />
    <glyph glyph-name="cedilla" unicode="&#xb8;" horiz-adv-x="983" 
d="M329 -338q3 12 9 23.5t14 18.5t17 3q18 -12 50 -29.5t77 -17.5q51 0 79.5 20.5t28.5 61.5v25q0 49 -44 66t-118 11v203h78v-145q80 -2 124 -37t44 -90v-45q0 -53 -46 -95.5t-146 -42.5q-33 0 -61.5 8.5t-50.5 17.5t-36 18.5t-16 11.5q-6 2 -3 14z" />
    <glyph glyph-name="uni00B9" unicode="&#xb9;" horiz-adv-x="567" 
d="M109 1419q0 16 1 25.5t11 13.5l127 49h80v-772q0 -10 -18.5 -11t-35.5 -1q-16 0 -34.5 1t-18.5 11v643h-100q-10 0 -11 12.5t-1 28.5z" />
    <glyph glyph-name="ordmasculine" unicode="&#xba;" horiz-adv-x="937" 
d="M176 1008v245q0 133 76 203t215 70q141 0 218 -70t77 -203v-245q0 -133 -77 -204t-218 -71q-139 0 -215 70.5t-76 204.5zM266 1022q0 -111 53.5 -158t147.5 -47t148.5 46t54.5 159v213q0 111 -54.5 157t-148.5 46t-147.5 -45t-53.5 -158v-213z" />
    <glyph glyph-name="guillemotright" unicode="&#xbb;" horiz-adv-x="1148" 
d="M219 248l283 399l-283 402q-4 6 10.5 19t33 25.5t34.5 20.5t20 2l328 -469l-328 -467q-4 -6 -20 2t-34.5 20.5t-33 26t-10.5 19.5zM625 248l282 399l-282 402q-4 6 10 19t32.5 25.5t35 20.5t20.5 2l328 -469l-328 -467q-4 -6 -20.5 2t-35 20.5t-32.5 26t-10 19.5z" />
    <glyph glyph-name="onequarter" unicode="&#xbc;" horiz-adv-x="1564" 
d="M158 1356q0 16 1 25.5t11 13.5l127 49h80v-772q0 -10 -18.5 -11.5t-34.5 -1.5t-35 1.5t-19 11.5v643h-100q-10 0 -11 12t-1 29zM264 0l776 1497q4 10 21.5 11t34.5 1q16 0 36.5 -1t16.5 -11l-776 -1497q-4 -10 -20.5 -11t-33.5 -1q-16 0 -37.5 1t-17.5 11zM805 244v88
l346 528q4 8 21.5 10t33.5 2t35 -1t19 -11v-526h88q10 0 11 -14.5t1 -30.5t-2 -30.5t-10 -14.5h-88v-150q0 -10 -18.5 -11t-35.5 -1q-16 0 -34.5 1t-18.5 11v150h-348zM907 334h246v379z" />
    <glyph glyph-name="onehalf" unicode="&#xbd;" horiz-adv-x="1564" 
d="M158 1356q0 16 1 25.5t11 13.5l127 49h80v-772q0 -10 -18.5 -11.5t-34.5 -1.5t-35 1.5t-19 11.5v643h-100q-10 0 -11 12t-1 29zM264 0l776 1497q4 10 21.5 11t34.5 1q16 0 36.5 -1t16.5 -11l-776 -1497q-4 -10 -20.5 -11t-33.5 -1q-16 0 -37.5 1t-17.5 11zM965 111v100
q0 55 10 100t36.5 82t69.5 66.5t111 58.5q94 41 131 78t35 100q-4 115 -146 115q-41 0 -92 -17.5t-86 -33.5q-8 -4 -17 7t-16.5 27.5t-8.5 33t5 20.5q41 23 106 40t118 17q98 0 168.5 -54t70.5 -153q0 -49 -12 -88t-41 -70.5t-78 -59t-123 -58.5q-49 -20 -76.5 -45
t-41 -52.5t-16.5 -56t-3 -59.5h377q10 0 11 -15.5t1 -31.5t-1 -33.5t-11 -17.5h-481z" />
    <glyph glyph-name="threequarters" unicode="&#xbe;" horiz-adv-x="1564" 
d="M131 722q4 15 12.5 32.5t17.5 30t13 10.5q12 -6 30.5 -17.5t42 -23t49.5 -18.5t52 -7q57 0 102.5 31t45.5 94v37q0 14 -8.5 32.5t-26 35t-46 27.5t-69.5 11h-47q-10 0 -11 18.5t-1 35.5q0 16 1 34.5t11 18.5h80q27 0 48.5 10t34.5 25.5t20 32t7 28.5v55q0 59 -40.5 83
t-88.5 24q-59 0 -102 -24.5t-63 -37.5q-8 -4 -18.5 7.5t-18.5 28t-11.5 31.5t3.5 19q33 23 86 43.5t112 20.5q113 0 179.5 -50t66.5 -173v-27q0 -41 -15.5 -68.5t-34 -46t-35.5 -26.5t-22 -10q2 0 20.5 -6.5t39 -22.5t38 -46t17.5 -75v-45q0 -43 -17.5 -82t-50 -67.5
t-76.5 -46t-98 -17.5q-45 0 -84.5 9t-70.5 19.5t-49.5 20.5t-22.5 15q-6 2 -2 17zM391 0l776 1497q4 10 21.5 11t34.5 1q16 0 36.5 -1t16.5 -11l-776 -1497q-4 -10 -20.5 -11t-33.5 -1q-16 0 -37.5 1t-17.5 11zM889 244v88l346 528q4 8 21.5 10t33.5 2t34.5 -1t18.5 -11
v-526h89q10 0 11 -14.5t1 -30.5t-2 -30.5t-10 -14.5h-89v-150q0 -10 -18 -11t-35 -1q-16 0 -34.5 1t-18.5 11v150h-348zM991 334h246v379z" />
    <glyph glyph-name="questiondown" unicode="&#xbf;" horiz-adv-x="919" 
d="M121 -61q0 72 25.5 129t64.5 107t83 96t83 94.5t64.5 99.5t25.5 115v69q0 10 18.5 11.5t34.5 1.5q18 0 34.5 -1.5t16.5 -11.5v-71q0 -70 -24.5 -128.5t-61 -108.5t-81 -95t-81 -92.5t-61 -98.5t-24.5 -112q0 -49 13 -94.5t43 -81t76.5 -57t112.5 -21.5q72 0 133.5 28.5
t104.5 59.5q6 4 18.5 -8.5t22.5 -30t15 -34.5t-3 -23q-63 -45 -140 -71t-163 -26q-96 0 -162.5 31t-108.5 80t-60.5 112.5t-18.5 131.5zM463 862v244q0 10 20.5 11t36.5 1t37 -1t21 -11v-244q0 -10 -20.5 -11t-37.5 -1q-16 0 -36.5 1t-20.5 11z" />
    <glyph glyph-name="Agrave" unicode="&#xc0;" horiz-adv-x="1181" 
d="M74 4l456 1493q4 10 25 11t37 1t37.5 -1t25.5 -11l453 -1493q2 -4 -5 -7t-17.5 -4t-21.5 -1h-20q-16 0 -37.5 1t-25.5 11l-109 369h-571l-113 -369q-4 -10 -22.5 -11t-34.5 -1h-18.5t-19.5 1t-15 4t-4 7zM322 1931q-10 12 2 18.5t53 6.5q27 0 40 -1t19 -11l182 -289
q8 -10 -4 -13.5t-34 -3.5q-41 0 -52 13zM332 475h512l-252 871z" />
    <glyph glyph-name="Aacute" unicode="&#xc1;" horiz-adv-x="1181" 
d="M74 4l456 1493q4 10 25 11t37 1t37.5 -1t25.5 -11l453 -1493q2 -4 -5 -7t-17.5 -4t-21.5 -1h-20q-16 0 -37.5 1t-25.5 11l-109 369h-571l-113 -369q-4 -10 -22.5 -11t-34.5 -1h-18.5t-19.5 1t-15 4t-4 7zM332 475h512l-252 871zM559 1655l182 289q6 10 19.5 11t40.5 1
q41 0 53 -6t2 -19l-207 -280q-10 -12 -51 -13q-23 0 -35 3.5t-4 13.5z" />
    <glyph glyph-name="Acircumflex" unicode="&#xc2;" horiz-adv-x="1181" 
d="M74 4l456 1493q4 10 25 11t37 1t37.5 -1t25.5 -11l453 -1493q2 -4 -5 -7t-17.5 -4t-21.5 -1h-20q-16 0 -37.5 1t-25.5 11l-109 369h-571l-113 -369q-4 -10 -22.5 -11t-34.5 -1h-18.5t-19.5 1t-15 4t-4 7zM332 475h512l-252 871zM365 1688l165 254q6 10 22.5 11t39.5 1
t39 -1t22 -11l164 -254q6 -10 -13.5 -11.5t-35.5 -1.5t-30.5 1t-20.5 12l-125 200l-127 -200q-4 -8 -19.5 -10.5t-31.5 -2.5t-36 1t-13 12z" />
    <glyph glyph-name="Atilde" unicode="&#xc3;" horiz-adv-x="1181" 
d="M74 4l456 1493q4 10 25 11t37 1t37.5 -1t25.5 -11l453 -1493q2 -4 -5 -7t-17.5 -4t-21.5 -1h-20q-16 0 -37.5 1t-25.5 11l-109 369h-571l-113 -369q-4 -10 -22.5 -11t-34.5 -1h-18.5t-19.5 1t-15 4t-4 7zM299 1776q6 16 21.5 37.5t38 40t50 31.5t60.5 13q41 0 72.5 -15
t58.5 -34.5t52.5 -35t54.5 -15.5q27 0 48 12.5t34.5 27.5t21.5 30.5t12 21.5q2 6 13.5 2t21.5 -13t18.5 -18.5t6.5 -15.5q-18 -51 -66.5 -94t-109.5 -43q-41 0 -72 15.5t-57.5 35t-51 34.5t-51.5 15q-39 0 -65.5 -20.5t-51.5 -61.5q-2 -4 -12 1.5t-21.5 14.5t-19.5 19.5
t-6 14.5zM332 475h512l-252 871z" />
    <glyph glyph-name="Adieresis" unicode="&#xc4;" horiz-adv-x="1181" 
d="M74 4l456 1493q4 10 25 11t37 1t37.5 -1t25.5 -11l453 -1493q2 -4 -5 -7t-17.5 -4t-21.5 -1h-20q-16 0 -37.5 1t-25.5 11l-109 369h-571l-113 -369q-4 -10 -22.5 -11t-34.5 -1h-18.5t-19.5 1t-15 4t-4 7zM332 475h512l-252 871zM367 1706v190q0 10 20.5 12.5t36.5 2.5
t36.5 -2t20.5 -13v-190q0 -10 -20.5 -12t-36.5 -2t-36.5 2t-20.5 12zM700 1706v190q0 10 20.5 12.5t37.5 2.5q16 0 36.5 -2t20.5 -13v-190q0 -10 -20.5 -12t-36.5 -2t-37 2t-21 12z" />
    <glyph glyph-name="Aring" unicode="&#xc5;" horiz-adv-x="1181" 
d="M74 4l456 1493q4 10 25 11t37 1t37.5 -1t25.5 -11l453 -1493q2 -4 -5 -7t-17.5 -4t-21.5 -1h-20q-16 0 -37.5 1t-25.5 11l-109 369h-571l-113 -369q-4 -10 -22.5 -11t-34.5 -1h-18.5t-19.5 1t-15 4t-4 7zM332 475h512l-252 871zM434 1759q0 66 46 112t112 46t112 -46
t46 -112t-46.5 -111.5t-111.5 -45.5q-66 0 -112 46t-46 111zM506 1759q0 -35 25.5 -60.5t60.5 -25.5t60.5 25.5t25.5 60.5t-25.5 60.5t-60.5 25.5t-60.5 -25.5t-25.5 -60.5z" />
    <glyph glyph-name="AE" unicode="&#xc6;" horiz-adv-x="1693" 
d="M74 4l721 1497h776q10 0 11 -18.5t1 -34.5t-1 -33.5t-11 -17.5h-606v-561h530q10 0 11 -17.5t1 -34.5q0 -16 -1 -33.5t-11 -17.5h-530v-629h610q10 0 11 -17t1 -34q0 -16 -1 -34.5t-11 -18.5h-729v373h-473l-176 -369q-4 -10 -24.5 -11t-37.5 -1q-16 0 -40.5 1t-20.5 11z
M428 475h418v895z" />
    <glyph glyph-name="Ccedilla" unicode="&#xc7;" horiz-adv-x="1185" 
d="M184 379v735q0 111 37 188.5t104.5 128t163 73t213.5 22.5q45 0 95.5 -6.5t99.5 -17.5t93 -25.5t75 -28.5q8 -4 5 -21.5t-10 -36t-17.5 -33t-18.5 -9.5q-74 35 -160 56t-164 21t-149.5 -15t-126.5 -52t-89 -96.5t-34 -147.5v-735q0 -94 35 -153.5t91 -92.5t129 -45
t149 -12q78 0 168 15t161 50q6 2 14.5 -12t14.5 -33.5t8 -37t-4 -19.5q-29 -14 -70 -25.5t-88 -19.5t-97 -13.5t-93 -5.5v-73q80 -2 124 -37t44 -90v-45q0 -53 -46.5 -95.5t-146.5 -42.5q-33 0 -61.5 8.5t-50 17.5t-36 18.5t-16.5 11.5q-6 2 -3 14t9.5 23.5t14.5 18.5t16 3
q18 -12 50 -29.5t77 -17.5q51 0 80 20.5t29 61.5v25q0 49 -44 66t-118 11v133q-213 10 -335 104.5t-122 297.5z" />
    <glyph glyph-name="Egrave" unicode="&#xc8;" horiz-adv-x="1054" 
d="M203 0v1501h723q10 0 11 -18.5t1 -34.5t-1 -33.5t-11 -17.5h-607v-561h531q10 0 11 -17.5t1 -34.5q0 -16 -1 -33.5t-11 -17.5h-531v-629h611q10 0 11 -17.5t1 -33.5t-1 -34.5t-11 -18.5h-727zM377 1931q-10 12 2 18.5t53 6.5q27 0 40 -1t20 -11l182 -289
q8 -10 -4.5 -13.5t-34.5 -3.5q-41 0 -51 13z" />
    <glyph glyph-name="Eacute" unicode="&#xc9;" horiz-adv-x="1054" 
d="M203 0v1501h723q10 0 11 -18.5t1 -34.5t-1 -33.5t-11 -17.5h-607v-561h531q10 0 11 -17.5t1 -34.5q0 -16 -1 -33.5t-11 -17.5h-531v-629h611q10 0 11 -17.5t1 -33.5t-1 -34.5t-11 -18.5h-727zM489 1655l183 289q6 10 19.5 11t39.5 1q41 0 53.5 -6t1.5 -19l-206 -280
q-10 -12 -52 -13q-23 0 -35 3.5t-4 13.5z" />
    <glyph glyph-name="Ecircumflex" unicode="&#xca;" horiz-adv-x="1054" 
d="M203 0v1501h723q10 0 11 -18.5t1 -34.5t-1 -33.5t-11 -17.5h-607v-561h531q10 0 11 -17.5t1 -34.5q0 -16 -1 -33.5t-11 -17.5h-531v-629h611q10 0 11 -17.5t1 -33.5t-1 -34.5t-11 -18.5h-727zM332 1688l166 254q6 10 22.5 11t38.5 1q23 0 39 -1t23 -11l163 -254
q6 -10 -13.5 -11.5t-35.5 -1.5t-30.5 1t-20.5 12l-125 200l-127 -200q-4 -8 -19.5 -10.5t-31.5 -2.5t-35.5 1t-13.5 12z" />
    <glyph glyph-name="Edieresis" unicode="&#xcb;" horiz-adv-x="1054" 
d="M203 0v1501h723q10 0 11 -18.5t1 -34.5t-1 -33.5t-11 -17.5h-607v-561h531q10 0 11 -17.5t1 -34.5q0 -16 -1 -33.5t-11 -17.5h-531v-629h611q10 0 11 -17.5t1 -33.5t-1 -34.5t-11 -18.5h-727zM332 1706v190q0 10 20.5 12.5t36.5 2.5t36.5 -2t20.5 -13v-190
q0 -10 -20.5 -12t-36.5 -2t-36.5 2t-20.5 12zM666 1706v190q0 10 20.5 12.5t36.5 2.5t36.5 -2t20.5 -13v-190q0 -10 -20.5 -12t-36.5 -2t-36.5 2t-20.5 12z" />
    <glyph glyph-name="Igrave" unicode="&#xcc;" horiz-adv-x="538" 
d="M16 1931q-10 12 2.5 18.5t53.5 6.5q27 0 40 -1t19 -11l182 -289q8 -10 -4 -13.5t-35 -3.5q-41 0 -51 13zM221 4v1493q0 10 20.5 11t37.5 1q16 0 37.5 -1t21.5 -11v-1493q0 -10 -21.5 -11t-37.5 -1t-37 1t-21 11z" />
    <glyph glyph-name="Iacute" unicode="&#xcd;" horiz-adv-x="538" 
d="M221 4v1493q0 10 20.5 11t37.5 1q16 0 37.5 -1t21.5 -11v-1493q0 -10 -21.5 -11t-37.5 -1t-37 1t-21 11zM246 1655l182 289q6 10 19.5 11t39.5 1q41 0 53.5 -6t2.5 -19l-207 -280q-10 -12 -51 -13q-23 0 -35 3.5t-4 13.5z" />
    <glyph glyph-name="Icircumflex" unicode="&#xce;" horiz-adv-x="538" 
d="M47 1688l166 254q6 10 22.5 11t38.5 1q23 0 39.5 -1t22.5 -11l164 -254q6 -10 -13.5 -11.5t-35.5 -1.5t-30.5 1t-21.5 12l-125 200l-127 -200q-4 -8 -19 -10.5t-32 -2.5q-16 0 -35.5 1t-13.5 12zM221 4v1493q0 10 20.5 11t37.5 1q16 0 37.5 -1t21.5 -11v-1493
q0 -10 -21.5 -11t-37.5 -1t-37 1t-21 11z" />
    <glyph glyph-name="Idieresis" unicode="&#xcf;" horiz-adv-x="538" 
d="M57 1706v190q0 10 20.5 12.5t37.5 2.5q16 0 36.5 -2t20.5 -13v-190q0 -10 -20.5 -12t-36.5 -2t-37 2t-21 12zM221 4v1493q0 10 20.5 11t37.5 1q16 0 37.5 -1t21.5 -11v-1493q0 -10 -21.5 -11t-37.5 -1t-37 1t-21 11zM391 1706v190q0 10 20.5 12.5t37.5 2.5q16 0 36.5 -2
t20.5 -13v-190q0 -10 -20.5 -12t-36.5 -2t-37 2t-21 12z" />
    <glyph glyph-name="Eth" unicode="&#xd0;" horiz-adv-x="1327" 
d="M43 768q0 16 1 32.5t11 16.5h148v684h465q254 0 364.5 -107.5t110.5 -312.5v-682q0 -203 -107.5 -301t-349.5 -98h-483v719h-148q-10 0 -11 16.5t-1 32.5zM319 102h373q170 0 252 69t82 228v684q0 154 -83 235t-269 81h-355v-582h338q10 0 11.5 -16.5t1.5 -32.5t-1 -32.5
t-12 -16.5h-338v-617z" />
    <glyph glyph-name="Ntilde" unicode="&#xd1;" horiz-adv-x="1411" 
d="M203 4v1493q0 10 28.5 11t59.5 1t58.5 -1t31.5 -11l467 -897l122.5 -234.5l123.5 -234.5h2q-2 98 -3 194.5t-1 194.5v977q0 10 21.5 11t35.5 1q18 0 38.5 -1t20.5 -11v-1493q0 -10 -30.5 -11t-57.5 -1q-20 0 -46.5 1t-31.5 11l-493 936l-115.5 219.5l-116.5 218.5h-2
q4 -98 4 -196.5v-196.5v-981q0 -10 -20 -11t-37 -1q-16 0 -37.5 1t-21.5 11zM414 1776q6 16 21.5 37.5t38 40t50 31.5t60.5 13q41 0 72.5 -15t58 -34.5t52.5 -35t54 -15.5q27 0 48.5 12.5t35 27.5t21.5 30.5t12 21.5q2 6 13.5 2t21.5 -13t18 -18.5t6 -15.5q-18 -51 -66 -94
t-110 -43q-41 0 -71.5 15.5t-57 35t-51.5 34.5t-51 15q-39 0 -65.5 -20.5t-51.5 -61.5q-2 -4 -12 1.5t-21.5 14.5t-19.5 19.5t-6 14.5z" />
    <glyph glyph-name="Ograve" unicode="&#xd2;" horiz-adv-x="1386" 
d="M184 377v743q0 106 37 183t104.5 126.5t161 73t205.5 23.5q113 0 207 -23.5t161.5 -73t104.5 -126t37 -183.5v-743q0 -106 -37 -182t-104.5 -125.5t-161.5 -72t-207 -22.5q-115 0 -208 22.5t-159.5 72t-103.5 125t-37 182.5zM301 377q0 -80 28.5 -137.5t80 -93t124 -53
t158.5 -17.5t159 17.5t125 53t80.5 93t28.5 137.5v743q0 82 -28.5 139.5t-80.5 94.5t-125 53t-159 16t-158.5 -16t-124 -53t-80 -94.5t-28.5 -139.5v-743zM434 1931q-10 12 2.5 18.5t52.5 6.5q27 0 40.5 -1t19.5 -11l182 -289q8 -10 -4 -13.5t-35 -3.5q-41 0 -51 13z" />
    <glyph glyph-name="Oacute" unicode="&#xd3;" horiz-adv-x="1386" 
d="M184 377v743q0 106 37 183t104.5 126.5t161 73t205.5 23.5q113 0 207 -23.5t161.5 -73t104.5 -126t37 -183.5v-743q0 -106 -37 -182t-104.5 -125.5t-161.5 -72t-207 -22.5q-115 0 -208 22.5t-159.5 72t-103.5 125t-37 182.5zM301 377q0 -80 28.5 -137.5t80 -93t124 -53
t158.5 -17.5t159 17.5t125 53t80.5 93t28.5 137.5v743q0 82 -28.5 139.5t-80.5 94.5t-125 53t-159 16t-158.5 -16t-124 -53t-80 -94.5t-28.5 -139.5v-743zM637 1655l182 289q6 10 19.5 11t40.5 1q41 0 53 -6t2 -19l-207 -280q-10 -12 -51 -13q-23 0 -35 3.5t-4 13.5z" />
    <glyph glyph-name="Ocircumflex" unicode="&#xd4;" horiz-adv-x="1386" 
d="M184 377v743q0 106 37 183t104.5 126.5t161 73t205.5 23.5q113 0 207 -23.5t161.5 -73t104.5 -126t37 -183.5v-743q0 -106 -37 -182t-104.5 -125.5t-161.5 -72t-207 -22.5q-115 0 -208 22.5t-159.5 72t-103.5 125t-37 182.5zM301 377q0 -80 28.5 -137.5t80 -93t124 -53
t158.5 -17.5t159 17.5t125 53t80.5 93t28.5 137.5v743q0 82 -28.5 139.5t-80.5 94.5t-125 53t-159 16t-158.5 -16t-124 -53t-80 -94.5t-28.5 -139.5v-743zM467 1688l166 254q6 10 22.5 11t38.5 1q23 0 39.5 -1t22.5 -11l164 -254q6 -10 -14 -11.5t-36 -1.5t-30.5 1t-20.5 12
l-125 200l-127 -200q-4 -8 -19.5 -10.5t-31.5 -2.5t-35.5 1t-13.5 12z" />
    <glyph glyph-name="Otilde" unicode="&#xd5;" horiz-adv-x="1386" 
d="M184 377v743q0 106 37 183t104.5 126.5t161 73t205.5 23.5q113 0 207 -23.5t161.5 -73t104.5 -126t37 -183.5v-743q0 -106 -37 -182t-104.5 -125.5t-161.5 -72t-207 -22.5q-115 0 -208 22.5t-159.5 72t-103.5 125t-37 182.5zM301 377q0 -80 28.5 -137.5t80 -93t124 -53
t158.5 -17.5t159 17.5t125 53t80.5 93t28.5 137.5v743q0 82 -28.5 139.5t-80.5 94.5t-125 53t-159 16t-158.5 -16t-124 -53t-80 -94.5t-28.5 -139.5v-743zM401 1776q6 16 21.5 37.5t38 40t50.5 31.5t60 13q41 0 73 -15t58.5 -34.5t52 -35t54.5 -15.5q27 0 48.5 12.5
t34.5 27.5t21.5 30.5t12.5 21.5q2 6 13 2t21.5 -13t18.5 -18.5t6 -15.5q-18 -51 -66.5 -94t-109.5 -43q-41 0 -71.5 15.5t-57.5 35t-51.5 34.5t-50.5 15q-39 0 -66 -20.5t-51 -61.5q-2 -4 -12.5 1.5t-21.5 14.5t-19.5 19.5t-6.5 14.5z" />
    <glyph glyph-name="Odieresis" unicode="&#xd6;" horiz-adv-x="1386" 
d="M184 377v743q0 106 37 183t104.5 126.5t161 73t205.5 23.5q113 0 207 -23.5t161.5 -73t104.5 -126t37 -183.5v-743q0 -106 -37 -182t-104.5 -125.5t-161.5 -72t-207 -22.5q-115 0 -208 22.5t-159.5 72t-103.5 125t-37 182.5zM301 377q0 -80 28.5 -137.5t80 -93t124 -53
t158.5 -17.5t159 17.5t125 53t80.5 93t28.5 137.5v743q0 82 -28.5 139.5t-80.5 94.5t-125 53t-159 16t-158.5 -16t-124 -53t-80 -94.5t-28.5 -139.5v-743zM469 1706v190q0 10 20.5 12.5t36.5 2.5t37 -2t21 -13v-190q0 -10 -21 -12t-37 -2t-36.5 2t-20.5 12zM803 1706v190
q0 10 20.5 12.5t36.5 2.5t37 -2t21 -13v-190q0 -10 -21 -12t-37 -2t-36.5 2t-20.5 12z" />
    <glyph glyph-name="multiply" unicode="&#xd7;" horiz-adv-x="1531" 
d="M162 155.5q-8 16.5 0 24.5l295 295l-295 295q-6 6 3 21.5t24.5 31t29.5 23.5t21 2l295 -295l294 295q6 6 21.5 -2t30 -23.5t23.5 -31t3 -21.5l-295 -295l295 -295q8 -8 0 -24.5t-22.5 -30.5t-30.5 -22.5t-25 -0.5l-294 295l-295 -295q-6 -6 -22.5 2.5t-32 21.5
t-23.5 29.5z" />
    <glyph glyph-name="Oslash" unicode="&#xd8;" horiz-adv-x="1386" 
d="M141 0l49.5 76l49.5 76q-43 59 -54.5 131.5t-11.5 181.5v579q0 129 29.5 221.5t91 152t158 87t229.5 27.5q119 0 216 -26.5t165 -80.5q14 20 26.5 40t26.5 40q4 10 22.5 11.5t35.5 1.5q16 0 39.5 -1t19.5 -12l-50.5 -77.5l-49.5 -77.5q39 -61 49 -131t10 -175v-661
q0 -23 -2 -45.5t-6 -42.5q-14 -84 -56.5 -142.5t-108 -97.5t-151.5 -56t-186 -17q-117 0 -212 22.5t-161 73.5q-12 -20 -25.5 -39t-25.5 -39q-4 -10 -23.5 -11t-35.5 -1t-39 1t-19 11zM291 383q0 -72 20 -121l345 532.5l345 532.5q-53 53 -134 78t-185 25
q-86 0 -158.5 -16.5t-124 -53.5t-80 -94.5t-28.5 -139.5v-743zM371 174q53 -47 132 -69.5t179 -22.5q86 0 158.5 17.5t125 53t81 93t28.5 137.5v743q0 59 -16 109l-344 -530.5z" />
    <glyph glyph-name="Ugrave" unicode="&#xd9;" horiz-adv-x="1320" 
d="M188 385v1112q0 10 21.5 11t38.5 1q16 0 36.5 -1t20.5 -11v-1122q0 -141 87 -220t265 -79t269.5 78.5t91.5 220.5v1122q0 10 19.5 11t35.5 1t38 -1t22 -11v-1112q0 -82 -27 -156.5t-84 -131t-147.5 -89.5t-217.5 -33t-216 33t-145 89.5t-82 131t-26 156.5zM446 1931
q-10 12 2.5 18.5t53.5 6.5q27 0 40 -1t19 -11l182 -289q8 -10 -4 -13.5t-34 -3.5q-41 0 -52 13z" />
    <glyph glyph-name="Uacute" unicode="&#xda;" horiz-adv-x="1320" 
d="M188 385v1112q0 10 21.5 11t38.5 1q16 0 36.5 -1t20.5 -11v-1122q0 -141 87 -220t265 -79t269.5 78.5t91.5 220.5v1122q0 10 19.5 11t35.5 1t38 -1t22 -11v-1112q0 -82 -27 -156.5t-84 -131t-147.5 -89.5t-217.5 -33t-216 33t-145 89.5t-82 131t-26 156.5zM567 1655
l183 289q6 10 19 11t40 1q41 0 53 -6t2 -19l-207 -280q-10 -12 -51 -13q-23 0 -35 3.5t-4 13.5z" />
    <glyph glyph-name="Ucircumflex" unicode="&#xdb;" horiz-adv-x="1320" 
d="M188 385v1112q0 10 21.5 11t38.5 1q16 0 36.5 -1t20.5 -11v-1122q0 -141 87 -220t265 -79t269.5 78.5t91.5 220.5v1122q0 10 19.5 11t35.5 1t38 -1t22 -11v-1112q0 -82 -27 -156.5t-84 -131t-147.5 -89.5t-217.5 -33t-216 33t-145 89.5t-82 131t-26 156.5zM434 1688
l166 254q6 10 22.5 11t39.5 1t39 -1t22 -11l164 -254q6 -10 -13.5 -11.5t-35.5 -1.5t-30.5 1t-21.5 12l-124 200l-127 -200q-4 -8 -19.5 -10.5t-32.5 -2.5q-16 0 -35.5 1t-13.5 12z" />
    <glyph glyph-name="Udieresis" unicode="&#xdc;" horiz-adv-x="1320" 
d="M188 385v1112q0 10 21.5 11t38.5 1q16 0 36.5 -1t20.5 -11v-1122q0 -141 87 -220t265 -79t269.5 78.5t91.5 220.5v1122q0 10 19.5 11t35.5 1t38 -1t22 -11v-1112q0 -82 -27 -156.5t-84 -131t-147.5 -89.5t-217.5 -33t-216 33t-145 89.5t-82 131t-26 156.5zM436 1706v190
q0 10 20.5 12.5t37.5 2.5q16 0 36.5 -2t20.5 -13v-190q0 -10 -20.5 -12t-36.5 -2t-37 2t-21 12zM770 1706v190q0 10 20.5 12.5t36.5 2.5t37 -2t21 -13v-190q0 -10 -21 -12t-37 -2t-36.5 2t-20.5 12z" />
    <glyph glyph-name="Yacute" unicode="&#xdd;" horiz-adv-x="1095" 
d="M43 1497q-4 10 20.5 11t40.5 1t40 -1t28 -11l373 -749l385 749q4 10 27.5 11t39.5 1t39 -2t17 -12l-453 -856v-635q0 -10 -20.5 -11t-36.5 -1t-38 1t-22 11v635zM492 1655l182 289q6 10 19.5 11t39.5 1q41 0 53.5 -6t1.5 -19l-206 -280q-10 -12 -52 -13q-23 0 -35 3.5
t-3 13.5z" />
    <glyph glyph-name="Thorn" unicode="&#xde;" horiz-adv-x="1306" 
d="M201 4v1493q0 10 20.5 11t36.5 1t37.5 -1t21.5 -11v-266h345q231 0 342.5 -94.5t111.5 -311.5v-125q0 -113 -27.5 -190.5t-84 -125.5t-141.5 -69.5t-199 -21.5h-345v-289q0 -10 -21.5 -11t-37.5 -1t-37.5 1t-21.5 11zM319 401h381q135 0 217 68t82 229v127
q0 88 -22.5 145.5t-66.5 92.5t-109.5 49t-153.5 14h-328v-725z" />
    <glyph glyph-name="germandbls" unicode="&#xdf;" horiz-adv-x="1185" 
d="M180 4v1118q0 86 23.5 161t72 128t121 84t170.5 31q129 0 208 -49.5t119 -123t44.5 -162.5t-20.5 -169q-102 12 -170 -6t-102 -62.5t-34 -103.5q0 -57 35 -94t86 -68t111.5 -59.5t112 -71.5t86 -105.5t34.5 -158.5q0 -59 -20.5 -116.5t-63.5 -102.5t-107.5 -72
t-152.5 -27q-78 0 -164 25t-143 59q-6 4 -2 20.5t13 34t20.5 31t17.5 9.5q53 -31 120 -55.5t138 -24.5q39 0 71 8t58 22q53 29 79 79t26 108q0 78 -35 127t-86 84t-112.5 63.5t-113 65.5t-86 91t-34.5 140q0 117 89 185.5t242 66.5q8 57 -1 113.5t-38.5 101.5t-82 71.5
t-131.5 26.5q-133 0 -208 -75.5t-75 -251.5v-1096q0 -10 -20.5 -11t-36.5 -1t-37 1t-21 11z" />
    <glyph glyph-name="agrave" unicode="&#xe0;" horiz-adv-x="1083" 
d="M106 305v53q0 193 170 270t533 27v90q0 154 -62.5 219.5t-205.5 65.5q-76 0 -157 -16.5t-144 -50.5q-10 -6 -20.5 7t-17.5 32.5t-8 38t9 22.5q59 29 151 49.5t191 20.5q197 0 286 -98.5t89 -280.5v-750q0 -10 -19.5 -11t-36.5 -1q-16 0 -34.5 1t-18.5 11v121
q-27 -25 -62.5 -50.5t-80.5 -48t-98.5 -37t-112.5 -14.5q-164 0 -257.5 88.5t-93.5 241.5zM217 305q0 -59 20.5 -102t55.5 -71t81 -42t99 -14q104 0 190.5 45t145.5 106v340q-313 45 -452.5 -11t-139.5 -200v-51zM328 1522q-10 12 2 18t53 6q27 0 40 -1t19 -11l183 -289
q8 -10 -4.5 -13t-34.5 -3q-41 0 -51 12z" />
    <glyph glyph-name="aacute" unicode="&#xe1;" horiz-adv-x="1083" 
d="M106 305v53q0 193 170 270t533 27v90q0 154 -62.5 219.5t-205.5 65.5q-76 0 -157 -16.5t-144 -50.5q-10 -6 -20.5 7t-17.5 32.5t-8 38t9 22.5q59 29 151 49.5t191 20.5q197 0 286 -98.5t89 -280.5v-750q0 -10 -19.5 -11t-36.5 -1q-16 0 -34.5 1t-18.5 11v121
q-27 -25 -62.5 -50.5t-80.5 -48t-98.5 -37t-112.5 -14.5q-164 0 -257.5 88.5t-93.5 241.5zM217 305q0 -59 20.5 -102t55.5 -71t81 -42t99 -14q104 0 190.5 45t145.5 106v340q-313 45 -452.5 -11t-139.5 -200v-51zM487 1245l183 289q6 10 19 11t40 1q41 0 53.5 -6t1.5 -18
l-206 -281q-10 -12 -52 -12q-23 0 -35 3t-4 13z" />
    <glyph glyph-name="acircumflex" unicode="&#xe2;" horiz-adv-x="1083" 
d="M106 305v53q0 193 170 270t533 27v90q0 154 -62.5 219.5t-205.5 65.5q-76 0 -157 -16.5t-144 -50.5q-10 -6 -20.5 7t-17.5 32.5t-8 38t9 22.5q59 29 151 49.5t191 20.5q197 0 286 -98.5t89 -280.5v-750q0 -10 -19.5 -11t-36.5 -1q-16 0 -34.5 1t-18.5 11v121
q-27 -25 -62.5 -50.5t-80.5 -48t-98.5 -37t-112.5 -14.5q-164 0 -257.5 88.5t-93.5 241.5zM217 305q0 -59 20.5 -102t55.5 -71t81 -42t99 -14q104 0 190.5 45t145.5 106v340q-313 45 -452.5 -11t-139.5 -200v-51zM317 1278l166 254q6 10 22.5 11t39.5 1t39 -1t22 -11
l164 -254q6 -10 -13.5 -11t-35.5 -1t-30.5 1t-20.5 11l-125 201l-127 -201q-4 -8 -19.5 -10t-31.5 -2t-36 1t-14 11z" />
    <glyph glyph-name="atilde" unicode="&#xe3;" horiz-adv-x="1083" 
d="M106 305v53q0 193 170 270t533 27v90q0 154 -62.5 219.5t-205.5 65.5q-76 0 -157 -16.5t-144 -50.5q-10 -6 -20.5 7t-17.5 32.5t-8 38t9 22.5q59 29 151 49.5t191 20.5q197 0 286 -98.5t89 -280.5v-750q0 -10 -19.5 -11t-36.5 -1q-16 0 -34.5 1t-18.5 11v121
q-27 -25 -62.5 -50.5t-80.5 -48t-98.5 -37t-112.5 -14.5q-164 0 -257.5 88.5t-93.5 241.5zM217 305q0 -59 20.5 -102t55.5 -71t81 -42t99 -14q104 0 190.5 45t145.5 106v340q-313 45 -452.5 -11t-139.5 -200v-51zM250 1366q6 16 21.5 37.5t38 40t50 32t60.5 13.5
q41 0 72.5 -15.5t58.5 -35t52.5 -34.5t53.5 -15q27 0 48.5 12t35 27.5t21.5 31t12 21.5q2 6 13.5 2t21.5 -13.5t18.5 -18.5t6.5 -15q-18 -51 -66.5 -94.5t-110.5 -43.5q-41 0 -71.5 15.5t-57 35t-51 35t-51.5 15.5q-39 0 -65.5 -20.5t-51.5 -61.5q-2 -4 -12 1t-21.5 14
t-19.5 19.5t-6 14.5z" />
    <glyph glyph-name="adieresis" unicode="&#xe4;" horiz-adv-x="1083" 
d="M106 305v53q0 193 170 270t533 27v90q0 154 -62.5 219.5t-205.5 65.5q-76 0 -157 -16.5t-144 -50.5q-10 -6 -20.5 7t-17.5 32.5t-8 38t9 22.5q59 29 151 49.5t191 20.5q197 0 286 -98.5t89 -280.5v-750q0 -10 -19.5 -11t-36.5 -1q-16 0 -34.5 1t-18.5 11v121
q-27 -25 -62.5 -50.5t-80.5 -48t-98.5 -37t-112.5 -14.5q-164 0 -257.5 88.5t-93.5 241.5zM217 305q0 -59 20.5 -102t55.5 -71t81 -42t99 -14q104 0 190.5 45t145.5 106v340q-313 45 -452.5 -11t-139.5 -200v-51zM317 1296v191q0 10 20.5 12t37.5 2q16 0 36.5 -2t20.5 -12
v-191q0 -10 -20.5 -12t-36.5 -2t-37 2t-21 12zM651 1296v191q0 10 20.5 12t37.5 2q16 0 36.5 -2t20.5 -12v-191q0 -10 -20.5 -12t-36.5 -2t-37 2t-21 12z" />
    <glyph glyph-name="aring" unicode="&#xe5;" horiz-adv-x="1083" 
d="M106 305v53q0 193 170 270t533 27v90q0 154 -62.5 219.5t-205.5 65.5q-76 0 -157 -16.5t-144 -50.5q-10 -6 -20.5 7t-17.5 32.5t-8 38t9 22.5q59 29 151 49.5t191 20.5q197 0 286 -98.5t89 -280.5v-750q0 -10 -19.5 -11t-36.5 -1q-16 0 -34.5 1t-18.5 11v121
q-27 -25 -62.5 -50.5t-80.5 -48t-98.5 -37t-112.5 -14.5q-164 0 -257.5 88.5t-93.5 241.5zM217 305q0 -59 20.5 -102t55.5 -71t81 -42t99 -14q104 0 190.5 45t145.5 106v340q-313 45 -452.5 -11t-139.5 -200v-51zM377 1415q0 66 46 112t112 46t111.5 -46t45.5 -112t-46 -112
t-111 -46q-66 0 -112 46.5t-46 111.5zM449 1415q0 -35 25.5 -60.5t60.5 -25.5t60.5 25.5t25.5 60.5t-26 60.5t-60 25.5q-35 0 -60.5 -25.5t-25.5 -60.5z" />
    <glyph glyph-name="ae" unicode="&#xe6;" horiz-adv-x="1775" 
d="M106 305v43q0 188 171.5 254t531.5 19v147q0 260 -268 260q-76 0 -157 -16.5t-144 -50.5q-10 -6 -20.5 7t-17.5 32.5t-8 38t9 22.5q59 29 151 49t191 20q129 0 211 -48t118 -140q51 98 141.5 145.5t201.5 47.5q94 0 170.5 -30t132 -85t86 -135t30.5 -183v-178h-716v-145
q0 -139 79.5 -221t235.5 -82q121 0 198.5 26.5t137.5 59.5q6 2 17 -10.5t20.5 -29t13.5 -32.5t-4 -20q-78 -45 -173 -70t-206 -25q-129 0 -222 44t-147 128q-82 -80 -186 -126t-227 -46q-164 0 -257.5 88.5t-93.5 241.5zM217 305q0 -59 20.5 -102t55.5 -71t81 -42t99 -14
q102 0 191.5 47t162.5 123q-18 61 -18 139v147q-311 45 -451.5 1t-140.5 -187v-41zM920 614h606v99q0 82 -24.5 143.5t-66.5 101t-98.5 60t-119.5 20.5q-61 0 -114.5 -20.5t-94.5 -60t-64.5 -99t-23.5 -139.5v-105z" />
    <glyph glyph-name="ccedilla" unicode="&#xe7;" horiz-adv-x="983" 
d="M135 375v360q0 195 108.5 297.5t301.5 102.5q111 0 191.5 -33t148.5 -82q10 -8 6 -24.5t-14.5 -33t-22.5 -26.5t-20 -4q-10 6 -35 23.5t-62 36t-84 31.5t-100 13q-147 0 -227 -78.5t-80 -240.5v-324q0 -160 80 -239.5t227 -79.5q53 0 97 10t79 26.5t62.5 35l50.5 34.5
q8 6 20 -3t22.5 -23.5t14.5 -29.5t-2 -22q-47 -45 -134 -82.5t-190 -42.5v-75q80 -2 124 -37t44 -90v-45q0 -53 -46 -95.5t-146 -42.5q-33 0 -61.5 8.5t-50 17.5t-36 18.5t-16.5 11.5q-6 2 -3 14t9 23.5t14.5 18.5t16.5 3q18 -12 50 -29.5t77 -17.5q51 0 79.5 20.5
t28.5 61.5v25q0 49 -44 66t-117 11v133q-170 14 -265.5 116t-95.5 282z" />
    <glyph glyph-name="egrave" unicode="&#xe8;" horiz-adv-x="1099" 
d="M133 385v338q0 94 31 170t86 129t130 82t161 29q94 0 170.5 -30t132 -85t86.5 -135t31 -183v-200h-717v-107q0 -147 77.5 -232t237.5 -85q121 0 199 26.5t137 59.5q6 2 17.5 -10.5t20.5 -29t13 -32.5t-4 -20q-78 -45 -173 -70t-206 -25q-205 0 -317.5 107.5t-112.5 302.5
zM244 590h606v121q0 82 -24.5 143t-66.5 101t-98.5 60.5t-119.5 20.5q-61 0 -114.5 -20.5t-94.5 -60.5t-64.5 -99t-23.5 -139v-127zM311 1522q-10 12 2.5 18t53.5 6q27 0 40 -1t19 -11l182 -289q8 -10 -4 -13t-35 -3q-41 0 -51 12z" />
    <glyph glyph-name="eacute" unicode="&#xe9;" horiz-adv-x="1099" 
d="M133 385v338q0 94 31 170t86 129t130 82t161 29q94 0 170.5 -30t132 -85t86.5 -135t31 -183v-200h-717v-107q0 -147 77.5 -232t237.5 -85q121 0 199 26.5t137 59.5q6 2 17.5 -10.5t20.5 -29t13 -32.5t-4 -20q-78 -45 -173 -70t-206 -25q-205 0 -317.5 107.5t-112.5 302.5
zM244 590h606v121q0 82 -24.5 143t-66.5 101t-98.5 60.5t-119.5 20.5q-61 0 -114.5 -20.5t-94.5 -60.5t-64.5 -99t-23.5 -139v-127zM504 1245l182 289q6 10 19.5 11t39.5 1q41 0 53.5 -6t2.5 -18l-207 -281q-10 -12 -51 -12q-23 0 -35 3t-4 13z" />
    <glyph glyph-name="ecircumflex" unicode="&#xea;" horiz-adv-x="1099" 
d="M133 385v338q0 94 31 170t86 129t130 82t161 29q94 0 170.5 -30t132 -85t86.5 -135t31 -183v-200h-717v-107q0 -147 77.5 -232t237.5 -85q121 0 199 26.5t137 59.5q6 2 17.5 -10.5t20.5 -29t13 -32.5t-4 -20q-78 -45 -173 -70t-206 -25q-205 0 -317.5 107.5t-112.5 302.5
zM244 590h606v121q0 82 -24.5 143t-66.5 101t-98.5 60.5t-119.5 20.5q-61 0 -114.5 -20.5t-94.5 -60.5t-64.5 -99t-23.5 -139v-127zM319 1278l166 254q6 10 22.5 11t39.5 1t39 -1t22 -11l164 -254q6 -10 -13.5 -11t-35.5 -1t-30.5 1t-20.5 11l-125 201l-127 -201
q-4 -8 -19.5 -10t-31.5 -2t-36 1t-14 11z" />
    <glyph glyph-name="edieresis" unicode="&#xeb;" horiz-adv-x="1099" 
d="M133 385v338q0 94 31 170t86 129t130 82t161 29q94 0 170.5 -30t132 -85t86.5 -135t31 -183v-200h-717v-107q0 -147 77.5 -232t237.5 -85q121 0 199 26.5t137 59.5q6 2 17.5 -10.5t20.5 -29t13 -32.5t-4 -20q-78 -45 -173 -70t-206 -25q-205 0 -317.5 107.5t-112.5 302.5
zM244 590h606v121q0 82 -24.5 143t-66.5 101t-98.5 60.5t-119.5 20.5q-61 0 -114.5 -20.5t-94.5 -60.5t-64.5 -99t-23.5 -139v-127zM322 1296v191q0 10 20 12t37 2q16 0 36.5 -2t20.5 -12v-191q0 -10 -20.5 -12t-36.5 -2t-36.5 2t-20.5 12zM655 1296v191q0 10 20.5 12
t37.5 2q16 0 36.5 -2t20.5 -12v-191q0 -10 -20.5 -12t-36.5 -2t-37 2t-21 12z" />
    <glyph glyph-name="igrave" unicode="&#xec;" horiz-adv-x="471" 
d="M-31 1522q-10 12 2.5 18t53.5 6q27 0 40 -1t19 -11l182 -289q8 -10 -4 -13t-35 -3q-41 0 -51 12zM176 4v1102q0 10 19.5 11t35.5 1t36 -1t20 -11v-1102q0 -10 -20 -11t-36 -1t-35.5 1t-19.5 11z" />
    <glyph glyph-name="iacute" unicode="&#xed;" horiz-adv-x="471" 
d="M176 4v1102q0 10 19.5 11t35.5 1t36 -1t20 -11v-1102q0 -10 -20 -11t-36 -1t-35.5 1t-19.5 11zM190 1245l183 289q6 10 19.5 11t39.5 1q41 0 53.5 -6t1.5 -18l-206 -281q-10 -12 -52 -12q-23 0 -35 3t-4 13z" />
    <glyph glyph-name="icircumflex" unicode="&#xee;" horiz-adv-x="471" 
d="M6 1278l166 254q6 10 22.5 11t38.5 1q23 0 39.5 -1t22.5 -11l164 -254q6 -10 -13.5 -11t-35.5 -1t-30.5 1t-21.5 11l-125 201l-127 -201q-4 -8 -19 -10t-32 -2q-16 0 -35.5 1t-13.5 11zM176 4v1102q0 10 19.5 11t35.5 1t36 -1t20 -11v-1102q0 -10 -20 -11t-36 -1t-35.5 1
t-19.5 11z" />
    <glyph glyph-name="idieresis" unicode="&#xef;" horiz-adv-x="471" 
d="M8 1296v191q0 10 20.5 12t37.5 2q16 0 36.5 -2t20.5 -12v-191q0 -10 -20.5 -12t-36.5 -2t-37 2t-21 12zM176 4v1102q0 10 19.5 11t35.5 1t36 -1t20 -11v-1102q0 -10 -20 -11t-36 -1t-35.5 1t-19.5 11zM342 1296v191q0 10 20.5 12t36.5 2t37 -2t21 -12v-191q0 -10 -21 -12
t-37 -2t-36.5 2t-20.5 12z" />
    <glyph glyph-name="eth" unicode="&#xf0;" horiz-adv-x="1204" 
d="M143 375v270q0 199 118 299t323 100q88 0 172 -32.5t147 -93.5q-23 92 -73 178t-121 153l-101 -100q-6 -6 -19.5 2t-25.5 21.5t-20 27.5t-2 21l98 98q-31 33 -63.5 63.5l-67.5 63.5q-6 6 3 21.5t23.5 30.5t30 25.5t21.5 4.5q35 -31 67.5 -63.5l63.5 -65.5l102 102
q4 4 17.5 -5t25.5 -21.5t21.5 -25.5t3.5 -19l-103 -103q43 -49 88.5 -106.5t82 -138.5t61 -194.5t24.5 -275.5v-239q0 -199 -121.5 -298.5t-326.5 -99.5q-211 0 -330 100.5t-119 299.5zM254 393q0 -88 26.5 -149.5t71.5 -99.5t106.5 -54t133.5 -16q70 0 131 16t107.5 54
t73 99.5t26.5 149.5v219q0 74 -28 135.5t-74 104.5t-107.5 67.5t-128.5 24.5q-72 0 -133.5 -17.5t-107.5 -55t-71.5 -98t-25.5 -146.5v-234z" />
    <glyph glyph-name="ntilde" unicode="&#xf1;" horiz-adv-x="1130" 
d="M180 4v1102q0 10 19.5 11t36.5 1q16 0 34.5 -1t18.5 -11v-199q66 94 165 160t222 66q135 0 213 -90.5t78 -237.5v-801q0 -10 -19.5 -11t-36.5 -1q-16 0 -35.5 1t-19.5 11v752q0 137 -56.5 201.5t-156.5 64.5q-53 0 -103.5 -20.5t-95.5 -54.5t-83.5 -77t-69.5 -86v-780
q0 -10 -19.5 -11t-35.5 -1t-36 1t-20 11zM276 1366q6 16 21.5 37.5t38 40t50.5 32t60 13.5q41 0 73 -15.5t58.5 -35t52 -34.5t54.5 -15q27 0 48.5 12t34.5 27.5t21.5 31t12.5 21.5q2 6 13 2t21.5 -13.5t18.5 -18.5t6 -15q-18 -51 -66.5 -94.5t-109.5 -43.5q-41 0 -71.5 15.5
t-57.5 35t-51.5 35t-50.5 15.5q-39 0 -66 -20.5t-51 -61.5q-2 -4 -12.5 1t-21.5 14t-19.5 19.5t-6.5 14.5z" />
    <glyph glyph-name="ograve" unicode="&#xf2;" horiz-adv-x="1122" 
d="M133 375v358q0 195 110.5 297.5t315.5 102.5t317.5 -102.5t112.5 -297.5v-358q0 -193 -112.5 -296.5t-317.5 -103.5t-315.5 103.5t-110.5 296.5zM244 393q0 -174 84 -246.5t231 -72.5q150 0 235 71.5t85 247.5v322q0 174 -85 245.5t-235 71.5q-147 0 -231 -71.5
t-84 -245.5v-322zM324 1522q-10 12 2 18t53 6q27 0 40 -1t19 -11l183 -289q8 -10 -4.5 -13t-34.5 -3q-41 0 -52 12z" />
    <glyph glyph-name="oacute" unicode="&#xf3;" horiz-adv-x="1122" 
d="M133 375v358q0 195 110.5 297.5t315.5 102.5t317.5 -102.5t112.5 -297.5v-358q0 -193 -112.5 -296.5t-317.5 -103.5t-315.5 103.5t-110.5 296.5zM244 393q0 -174 84 -246.5t231 -72.5q150 0 235 71.5t85 247.5v322q0 174 -85 245.5t-235 71.5q-147 0 -231 -71.5
t-84 -245.5v-322zM489 1245l183 289q6 10 19.5 11t39.5 1q41 0 53.5 -6t1.5 -18l-206 -281q-10 -12 -52 -12q-23 0 -35 3t-4 13z" />
    <glyph glyph-name="ocircumflex" unicode="&#xf4;" horiz-adv-x="1122" 
d="M133 375v358q0 195 110.5 297.5t315.5 102.5t317.5 -102.5t112.5 -297.5v-358q0 -193 -112.5 -296.5t-317.5 -103.5t-315.5 103.5t-110.5 296.5zM244 393q0 -174 84 -246.5t231 -72.5q150 0 235 71.5t85 247.5v322q0 174 -85 245.5t-235 71.5q-147 0 -231 -71.5
t-84 -245.5v-322zM334 1278l166 254q6 10 22.5 11t38.5 1q23 0 39 -1t23 -11l163 -254q6 -10 -13.5 -11t-35.5 -1t-30.5 1t-20.5 11l-125 201l-127 -201q-4 -8 -19.5 -10t-31.5 -2t-35.5 1t-13.5 11z" />
    <glyph glyph-name="otilde" unicode="&#xf5;" horiz-adv-x="1122" 
d="M133 375v358q0 195 110.5 297.5t315.5 102.5t317.5 -102.5t112.5 -297.5v-358q0 -193 -112.5 -296.5t-317.5 -103.5t-315.5 103.5t-110.5 296.5zM244 393q0 -174 84 -246.5t231 -72.5q150 0 235 71.5t85 247.5v322q0 174 -85 245.5t-235 71.5q-147 0 -231 -71.5
t-84 -245.5v-322zM268 1366q6 16 21.5 37.5t38 40t50.5 32t60 13.5q41 0 73 -15.5t58.5 -35t52 -34.5t54.5 -15q27 0 48 12t34.5 27.5t21.5 31t13 21.5q2 6 13 2t21.5 -13.5t18.5 -18.5t6 -15q-18 -51 -66.5 -94.5t-109.5 -43.5q-41 0 -72 15.5t-57.5 35t-51 35t-51.5 15.5
q-39 0 -65.5 -20.5t-50.5 -61.5q-2 -4 -12.5 1t-21.5 14t-19.5 19.5t-6.5 14.5z" />
    <glyph glyph-name="odieresis" unicode="&#xf6;" horiz-adv-x="1122" 
d="M133 375v358q0 195 110.5 297.5t315.5 102.5t317.5 -102.5t112.5 -297.5v-358q0 -193 -112.5 -296.5t-317.5 -103.5t-315.5 103.5t-110.5 296.5zM244 393q0 -174 84 -246.5t231 -72.5q150 0 235 71.5t85 247.5v322q0 174 -85 245.5t-235 71.5q-147 0 -231 -71.5
t-84 -245.5v-322zM336 1296v191q0 10 20.5 12t36.5 2t37 -2t21 -12v-191q0 -10 -21 -12t-37 -2t-36.5 2t-20.5 12zM670 1296v191q0 10 20.5 12t36.5 2t36.5 -2t20.5 -12v-191q0 -10 -20.5 -12t-36.5 -2t-36.5 2t-20.5 12z" />
    <glyph glyph-name="divide" unicode="&#xf7;" 
d="M127 483q0 16 1 35t11 19h1026q10 0 11.5 -18.5t1.5 -35.5q0 -16 -1 -33.5t-12 -17.5h-1026q-10 0 -11 17.5t-1 33.5zM600 745v244q0 10 20.5 11t36.5 1t37 -1t21 -11v-244q0 -10 -21 -11t-37 -1t-36.5 1t-20.5 11zM602 0v244q0 10 20.5 11t36.5 1t37 -1t21 -11v-244
q0 -10 -21 -11t-37 -1t-36.5 1t-20.5 11z" />
    <glyph glyph-name="oslash" unicode="&#xf8;" horiz-adv-x="1122" 
d="M133 375v360q0 195 110.5 297.5t315.5 102.5q147 0 252 -58l33 60q4 10 21.5 11t33.5 1t39 -1t18 -11l-67 -119q100 -104 100 -283v-360q0 -193 -112.5 -296.5t-317.5 -103.5q-133 0 -231 48l-37 -66q-4 -10 -22.5 -11t-35.5 -1q-16 0 -37.5 1t-17.5 11l68 121
q-113 102 -113 297zM244 393q0 -141 57 -217l459 811q-76 47 -201 47q-147 0 -231 -71.5t-84 -245.5v-324zM377 111q74 -37 182 -37q150 0 235 71.5t85 247.5v324q0 123 -48 198z" />
    <glyph glyph-name="ugrave" unicode="&#xf9;" horiz-adv-x="1130" 
d="M164 303v803q0 10 19.5 11t35.5 1t35.5 -1t19.5 -11v-774q0 -123 62.5 -184.5t150.5 -61.5q76 0 140.5 38t111.5 84t74 83l27 37v778q0 10 19.5 11t35.5 1t35.5 -1t19.5 -11v-1102q0 -10 -19.5 -11t-35.5 -1t-34.5 1t-18.5 11v199q-66 -94 -165 -161t-222 -67
q-135 0 -213 90.5t-78 237.5zM354 1522q-10 12 2.5 18t53.5 6q27 0 40 -1t19 -11l182 -289q8 -10 -4 -13t-35 -3q-41 0 -51 12z" />
    <glyph glyph-name="uacute" unicode="&#xfa;" horiz-adv-x="1130" 
d="M164 303v803q0 10 19.5 11t35.5 1t35.5 -1t19.5 -11v-774q0 -123 62.5 -184.5t150.5 -61.5q76 0 140.5 38t111.5 84t74 83l27 37v778q0 10 19.5 11t35.5 1t35.5 -1t19.5 -11v-1102q0 -10 -19.5 -11t-35.5 -1t-34.5 1t-18.5 11v199q-66 -94 -165 -161t-222 -67
q-135 0 -213 90.5t-78 237.5zM496 1245l182 289q6 10 19.5 11t39.5 1q41 0 53.5 -6t2.5 -18l-207 -281q-10 -12 -51 -12q-23 0 -35.5 3t-3.5 13z" />
    <glyph glyph-name="ucircumflex" unicode="&#xfb;" horiz-adv-x="1130" 
d="M164 303v803q0 10 19.5 11t35.5 1t35.5 -1t19.5 -11v-774q0 -123 62.5 -184.5t150.5 -61.5q76 0 140.5 38t111.5 84t74 83l27 37v778q0 10 19.5 11t35.5 1t35.5 -1t19.5 -11v-1102q0 -10 -19.5 -11t-35.5 -1t-34.5 1t-18.5 11v199q-66 -94 -165 -161t-222 -67
q-135 0 -213 90.5t-78 237.5zM336 1278l166 254q6 10 22.5 11t38.5 1q23 0 39 -1t23 -11l163 -254q6 -10 -13.5 -11t-35.5 -1t-30.5 1t-20.5 11l-125 201l-127 -201q-4 -8 -19.5 -10t-31.5 -2t-35.5 1t-13.5 11z" />
    <glyph glyph-name="udieresis" unicode="&#xfc;" horiz-adv-x="1130" 
d="M164 303v803q0 10 19.5 11t35.5 1t35.5 -1t19.5 -11v-774q0 -123 62.5 -184.5t150.5 -61.5q76 0 140.5 38t111.5 84t74 83l27 37v778q0 10 19.5 11t35.5 1t35.5 -1t19.5 -11v-1102q0 -10 -19.5 -11t-35.5 -1t-34.5 1t-18.5 11v199q-66 -94 -165 -161t-222 -67
q-135 0 -213 90.5t-78 237.5zM338 1296v191q0 10 20.5 12t36.5 2t37 -2t21 -12v-191q0 -10 -21 -12t-37 -2t-36.5 2t-20.5 12zM672 1296v191q0 10 20.5 12t36.5 2t36.5 -2t20.5 -12v-191q0 -10 -20.5 -12t-36.5 -2t-36.5 2t-20.5 12z" />
    <glyph glyph-name="yacute" unicode="&#xfd;" horiz-adv-x="946" 
d="M35 1106q-2 4 4 7t16.5 4t20.5 1h18q16 0 37 -1t25 -11l323 -956l318 956q4 10 25.5 11t37.5 1h18.5t20.5 -2t16.5 -4t4.5 -6l-529 -1505q-4 -10 -23.5 -11.5t-35.5 -1.5h-18.5t-20.5 1t-16.5 3t-4.5 9l148 411zM410 1245l182 289q6 10 19.5 11t39.5 1q41 0 53.5 -6
t2.5 -18l-207 -281q-10 -12 -51 -12q-23 0 -35.5 3t-3.5 13z" />
    <glyph glyph-name="thorn" unicode="&#xfe;" horiz-adv-x="1150" 
d="M176 -406v1919q0 10 19.5 11.5t35.5 1.5t35 -1t19 -12v-561q18 33 47.5 65t71.5 58.5t94.5 43t117.5 16.5q176 0 284 -100.5t108 -299.5v-360q0 -98 -29 -173t-79 -125t-120.5 -76t-156.5 -26q-131 0 -215 51.5t-121 116.5v-549q0 -10 -19.5 -11t-36.5 -1q-16 0 -35.5 1
t-19.5 11zM287 371q0 -70 24.5 -125.5t66.5 -93t100.5 -58t125.5 -20.5q63 0 117.5 16t93.5 54t60.5 99.5t21.5 149.5v324q0 86 -23.5 146.5t-64.5 98t-98 54t-127 16.5q-63 0 -117.5 -22.5t-94.5 -61.5t-62.5 -89t-22.5 -105v-383z" />
    <glyph glyph-name="ydieresis" unicode="&#xff;" horiz-adv-x="946" 
d="M35 1106q-2 4 4 7t16.5 4t20.5 1h18q16 0 37 -1t25 -11l323 -956l318 956q4 10 25.5 11t37.5 1h18.5t20.5 -2t16.5 -4t4.5 -6l-529 -1505q-4 -10 -23.5 -11.5t-35.5 -1.5h-18.5t-20.5 1t-16.5 3t-4.5 9l148 411zM250 1296v191q0 10 20.5 12t36.5 2t37 -2t21 -12v-191
q0 -10 -21 -12t-37 -2t-36.5 2t-20.5 12zM584 1296v191q0 10 20.5 12t36.5 2t36.5 -2t20.5 -12v-191q0 -10 -20.5 -12t-36.5 -2t-36.5 2t-20.5 12z" />
    <glyph glyph-name="OE" unicode="&#x152;" horiz-adv-x="2011" 
d="M184 377v743q0 106 39 183t108.5 126.5t165 73t208.5 23.5q111 0 187.5 -21.5t125.5 -46.5q55 -29 92 -65v108h745q10 0 11.5 -17.5t1.5 -33.5t-2 -32.5t-11 -16.5h-628v-567h526q10 0 11 -16.5t1 -33.5q0 -16 -1 -32.5t-11 -16.5h-526v-635h659q10 0 11 -16t1 -33
q0 -16 -1 -33.5t-11 -17.5h-776v113q-27 -39 -80 -70q-47 -27 -125 -47.5t-200 -20.5q-115 0 -210.5 22.5t-164 72t-107.5 125t-39 182.5zM301 377q0 -98 41 -157.5t102.5 -91.5t131 -42t129.5 -10q74 0 146.5 13t129.5 48t93 92.5t36 147.5v743q0 86 -36 144.5t-93 94.5
t-130 51t-146 15q-59 0 -129 -11t-131.5 -43t-102.5 -92t-41 -159v-743z" />
    <glyph glyph-name="oe" unicode="&#x153;" horiz-adv-x="1855" 
d="M143 375v360q0 195 111 297.5t315 102.5q279 0 379 -183q53 86 144.5 134.5t203.5 48.5q94 0 171 -30t132.5 -85t86 -135t30.5 -183v-202h-717v-107q0 -147 78 -232t238 -85q121 0 198.5 26.5t137.5 59.5q6 2 17 -10.5t20.5 -29t13.5 -32.5t-4 -20q-78 -45 -173 -70
t-206 -25q-133 0 -227.5 46.5t-145.5 132.5q-51 -88 -146.5 -133.5t-230.5 -45.5q-205 0 -315.5 103.5t-110.5 296.5zM254 393q0 -174 84 -246.5t231 -72.5q145 0 230.5 67.5t89.5 233.5v358q-4 164 -90 232.5t-230 68.5q-147 0 -231 -71.5t-84 -245.5v-324zM999 590h607
v123q0 82 -25 143.5t-66.5 101t-98 60t-120.5 20.5q-59 0 -112.5 -19.5t-93 -57t-64.5 -95t-27 -133.5v-143z" />
    <glyph glyph-name="Ydieresis" unicode="&#x178;" horiz-adv-x="1095" 
d="M43 1497q-4 10 20.5 11t40.5 1t40 -1t28 -11l373 -749l385 749q4 10 27.5 11t39.5 1t39 -2t17 -12l-453 -856v-635q0 -10 -20.5 -11t-36.5 -1t-38 1t-22 11v635zM319 1706v190q0 10 20.5 12.5t37.5 2.5q16 0 36.5 -2t20.5 -13v-190q0 -10 -20.5 -12t-36.5 -2t-37 2
t-21 12zM653 1706v190q0 10 20.5 12.5t37.5 2.5q16 0 36.5 -2t20.5 -13v-190q0 -10 -20.5 -12t-36.5 -2t-37 2t-21 12z" />
    <glyph glyph-name="circumflex" unicode="&#x2c6;" horiz-adv-x="983" 
d="M336 1278l166 254q6 10 22.5 11t38.5 1q23 0 39 -1t23 -11l163 -254q6 -10 -13.5 -11t-35.5 -1t-30.5 1t-20.5 11l-125 201l-127 -201q-4 -8 -19.5 -10t-31.5 -2t-35.5 1t-13.5 11z" />
    <glyph glyph-name="tilde" unicode="&#x2dc;" horiz-adv-x="983" 
d="M219 1366q6 16 21.5 37.5t38 40t50 32t60.5 13.5q41 0 73 -15.5t58.5 -35t52 -34.5t54.5 -15q27 0 48 12t34.5 27.5t21.5 31t12 21.5q2 6 13.5 2t21.5 -13.5t18.5 -18.5t6.5 -15q-18 -51 -66.5 -94.5t-109.5 -43.5q-41 0 -72 15.5t-57.5 35t-51 35t-51.5 15.5
q-39 0 -65.5 -20.5t-50.5 -61.5q-2 -4 -12.5 1t-22 14t-19.5 19.5t-6 14.5z" />
    <glyph glyph-name="uni2000" unicode="&#x2000;" horiz-adv-x="978" 
 />
    <glyph glyph-name="uni2001" unicode="&#x2001;" horiz-adv-x="1956" 
 />
    <glyph glyph-name="uni2002" unicode="&#x2002;" horiz-adv-x="978" 
 />
    <glyph glyph-name="uni2003" unicode="&#x2003;" horiz-adv-x="1956" 
 />
    <glyph glyph-name="uni2004" unicode="&#x2004;" horiz-adv-x="652" 
 />
    <glyph glyph-name="uni2005" unicode="&#x2005;" horiz-adv-x="489" 
 />
    <glyph glyph-name="uni2006" unicode="&#x2006;" horiz-adv-x="326" 
 />
    <glyph glyph-name="uni2007" unicode="&#x2007;" horiz-adv-x="326" 
 />
    <glyph glyph-name="uni2008" unicode="&#x2008;" horiz-adv-x="244" 
 />
    <glyph glyph-name="uni2009" unicode="&#x2009;" horiz-adv-x="391" 
 />
    <glyph glyph-name="uni200A" unicode="&#x200a;" horiz-adv-x="108" 
 />
    <glyph glyph-name="uni2010" unicode="&#x2010;" horiz-adv-x="960" 
d="M164 608q0 16 1 32.5t11 16.5h608q10 0 11.5 -16t1.5 -33q0 -16 -1 -32.5t-12 -16.5h-608q-10 0 -11 16.5t-1 32.5z" />
    <glyph glyph-name="uni2011" unicode="&#x2011;" horiz-adv-x="960" 
d="M164 608q0 16 1 32.5t11 16.5h608q10 0 11.5 -16t1.5 -33q0 -16 -1 -32.5t-12 -16.5h-608q-10 0 -11 16.5t-1 32.5z" />
    <glyph glyph-name="figuredash" unicode="&#x2012;" horiz-adv-x="960" 
d="M164 608q0 16 1 32.5t11 16.5h608q10 0 11.5 -16t1.5 -33q0 -16 -1 -32.5t-12 -16.5h-608q-10 0 -11 16.5t-1 32.5z" />
    <glyph glyph-name="endash" unicode="&#x2013;" horiz-adv-x="1189" 
d="M164 590q0 16 1 32.5t11 16.5h838q10 0 11 -16.5t1 -32.5t-1 -32.5t-11 -16.5h-838q-10 0 -11 16t-1 33z" />
    <glyph glyph-name="emdash" unicode="&#x2014;" horiz-adv-x="2213" 
d="M164 590q0 16 1 32.5t11 16.5h1862q10 0 11 -16.5t1 -32.5t-1 -32.5t-11 -16.5h-1862q-10 0 -11 16t-1 33z" />
    <glyph glyph-name="quoteleft" unicode="&#x2018;" horiz-adv-x="460" 
d="M129 1112q0 162 37 261.5t110 170.5q14 13 41 -10q12 -10 17.5 -19.5t-0.5 -17.5q-33 -37 -51.5 -68.5t-27.5 -72.5t-12 -98.5t-3 -145.5q0 -10 -19.5 -11t-36.5 -1q-16 0 -35.5 1t-19.5 11z" />
    <glyph glyph-name="quoteright" unicode="&#x2019;" horiz-adv-x="460" 
d="M127 1141q33 37 51.5 68.5t27.5 72.5t12 98.5t3 145.5q0 10 19.5 11t35.5 1t36 -1t20 -11q0 -82 -9.5 -145.5t-28 -116t-46 -93.5t-64.5 -77q-14 -13 -41 10q-29 20 -16 37z" />
    <glyph glyph-name="quotesinglbase" unicode="&#x201a;" horiz-adv-x="464" 
d="M131 -162q33 37 51.5 69t27.5 72.5t12 98t3 145.5q0 10 19.5 11.5t36.5 1.5q16 0 35.5 -1.5t19.5 -11.5q0 -82 -9.5 -145.5t-27.5 -115.5t-46 -93t-65 -78q-14 -13 -41 10q-29 20 -16 37z" />
    <glyph glyph-name="quotedblleft" unicode="&#x201c;" horiz-adv-x="755" 
d="M129 1112q0 162 37 261.5t110 170.5q14 13 41 -10q12 -10 17.5 -19.5t-0.5 -17.5q-33 -37 -51.5 -68.5t-27.5 -72.5t-12 -98.5t-3 -145.5q0 -10 -19.5 -11t-36.5 -1q-16 0 -35.5 1t-19.5 11zM424 1112q0 162 37 261.5t110 170.5q14 13 41 -10q12 -10 17.5 -19.5
t-0.5 -17.5q-33 -37 -51.5 -68.5t-27.5 -72.5t-12 -98.5t-3 -145.5q0 -10 -19.5 -11t-36.5 -1q-16 0 -35.5 1t-19.5 11z" />
    <glyph glyph-name="quotedblright" unicode="&#x201d;" horiz-adv-x="749" 
d="M127 1110q33 37 51.5 68.5t27.5 72.5t12 98.5t3 145.5q0 10 19.5 11t35.5 1t36 -1t20 -11q0 -82 -9.5 -145.5t-28 -115.5t-46 -93t-64.5 -78q-14 -13 -41 10q-29 20 -16 37zM422 1110q33 37 51.5 68.5t27.5 72.5t12 98.5t3 145.5q0 10 19.5 11t35.5 1t36 -1t20 -11
q0 -82 -9.5 -145.5t-28 -115.5t-46 -93t-64.5 -78q-14 -13 -41 10q-29 20 -16 37z" />
    <glyph glyph-name="quotedblbase" unicode="&#x201e;" horiz-adv-x="796" 
d="M127 -162q33 37 51.5 69t27.5 72.5t12 98t3 145.5q0 10 19.5 11.5t35.5 1.5t36 -1.5t20 -11.5q0 -82 -9.5 -145.5t-28 -115.5t-46 -93t-64.5 -78q-14 -13 -41 10q-29 20 -16 37zM422 -162q33 37 51.5 69t27.5 72.5t12 98t3 145.5q0 10 19.5 11.5t35.5 1.5t36 -1.5
t20 -11.5q0 -82 -9.5 -145.5t-28 -115.5t-46 -93t-64.5 -78q-14 -13 -41 10q-29 20 -16 37z" />
    <glyph glyph-name="bullet" unicode="&#x2022;" horiz-adv-x="950" 
d="M260 651q0 43 16.5 82t46 68.5t68.5 46t82 16.5t82 -16.5t68.5 -46t46 -68.5t16.5 -82t-16.5 -82t-46 -68.5t-68.5 -46t-82 -16.5t-82 16.5t-68.5 46t-46 68.5t-16.5 82z" />
    <glyph glyph-name="ellipsis" unicode="&#x2026;" horiz-adv-x="1253" 
d="M164 4v244q0 10 20.5 11t36.5 1t37 -1t21 -11v-244q0 -10 -21 -11t-37 -1t-36.5 1t-20.5 11zM569 4v244q0 10 20.5 11t37.5 1q16 0 36.5 -1t20.5 -11v-244q0 -10 -20.5 -11t-36.5 -1t-37 1t-21 11zM975 4v244q0 10 20.5 11t36.5 1t37 -1t21 -11v-244q0 -10 -21 -11
t-37 -1t-36.5 1t-20.5 11z" />
    <glyph glyph-name="uni202F" unicode="&#x202f;" horiz-adv-x="391" 
 />
    <glyph glyph-name="guilsinglleft" unicode="&#x2039;" horiz-adv-x="755" 
d="M127 647l328 469q2 6 19.5 -2t35.5 -21.5t32.5 -26.5t10.5 -17l-283 -402l283 -399q4 -6 -10.5 -19.5t-32.5 -26t-35.5 -20.5t-19.5 -2z" />
    <glyph glyph-name="guilsinglright" unicode="&#x203a;" horiz-adv-x="755" 
d="M201 248l282 399l-282 402q-4 6 10 19t32.5 25.5t35 20.5t20.5 2l328 -469l-328 -467q-4 -6 -20.5 2t-35 20.5t-32.5 26t-10 19.5z" />
    <glyph glyph-name="uni205F" unicode="&#x205f;" horiz-adv-x="489" 
 />
    <glyph glyph-name="Euro" unicode="&#x20ac;" 
d="M129 596q0 16 1 31.5t11 15.5h138v191h-138q-10 0 -11 15t-1 32q0 16 1 31.5t11 15.5h138v186q0 111 36.5 188.5t104 128t163 73t214.5 22.5q45 0 95 -6.5t99 -17.5t94 -25.5t76 -28.5q8 -4 5 -21.5t-10 -36t-17.5 -33t-18.5 -9.5q-74 35 -161 56t-164 21
q-74 0 -145.5 -12t-128 -46t-91.5 -94.5t-35 -158.5v-186h482q10 0 11 -15.5t1 -31.5t-1 -31.5t-11 -15.5h-482v-191h482q10 0 11 -15.5t1 -31.5t-1 -31.5t-11 -15.5h-482v-170q0 -94 35 -153.5t91.5 -92.5t128 -45t145.5 -12q78 0 166 15t159 50q6 2 14.5 -12t14.5 -33.5
t8 -37t-4 -19.5q-29 -14 -72 -25.5t-92 -19.5t-99 -13.5t-95 -5.5q-121 0 -216.5 22.5t-162 71t-102 125t-35.5 185.5v170h-138q-10 0 -11 15.5t-1 31.5z" />
    <glyph glyph-name="trademark" unicode="&#x2122;" horiz-adv-x="1140" 
d="M45 1470q0 8 1 19.5t7 11.5h391q6 0 7.5 -11t1.5 -20q0 -8 -1 -19t-8 -11h-159v-498q0 -6 -14.5 -7t-24.5 -1t-23.5 1t-13.5 7v498h-156q-6 0 -7 11t-1 19zM528 944v553q0 8 18.5 8h28.5h31t23 -8l69.5 -230.5l69.5 -230.5l69.5 230.5l69.5 230.5q2 8 22.5 8h31.5
q10 0 31.5 -1t21.5 -7v-553q0 -6 -14.5 -8t-24.5 -2t-24.5 2t-14.5 8v416q0 6 1 20.5t3 16.5l-68.5 -225.5l-68.5 -225.5q-4 -10 -12.5 -11t-22.5 -1q-31 0 -35 12l-68.5 225.5l-68.5 225.5v-15q0 -6 1 -12t1 -10v-416q0 -6 -12.5 -8t-22.5 -2t-22.5 2t-12.5 8z" />
    <glyph glyph-name="uniE000" unicode="&#xe000;" horiz-adv-x="1116" 
d="M0 0v1116h1116v-1116h-1116z" />
    <glyph glyph-name="uniFB01" unicode="&#xfb01;" horiz-adv-x="1028" 
d="M59 1034q0 16 1 30.5t12 14.5h151v221q0 100 56.5 163t160.5 63h115q6 0 9 -7.5t3 -41.5q0 -33 -3 -40t-9 -7h-98q-66 0 -94.5 -39t-28.5 -111v-201h188q10 0 11.5 -14.5t1.5 -30.5t-1.5 -31.5t-11.5 -15.5h-188v-983q0 -10 -19.5 -11t-35.5 -1t-36 1t-20 11v983h-151
q-10 0 -11.5 15.5t-1.5 31.5zM795 4v1102q0 10 19.5 11t35.5 1t35.5 -1t19.5 -11v-1102q0 -10 -19.5 -11t-35.5 -1t-35.5 1t-19.5 11zM795 1305v217q0 10 19.5 11t35.5 1t35.5 -1t19.5 -11v-217q0 -10 -19.5 -11.5t-35.5 -1.5t-35.5 1t-19.5 12z" />
    <glyph glyph-name="uniFB02" unicode="&#xfb02;" horiz-adv-x="1146" 
d="M59 1034q0 16 1 30.5t12 14.5h151v221q0 100 56.5 163t160.5 63h115q6 0 9 -7.5t3 -41.5q0 -33 -3 -40t-9 -7h-98q-66 0 -94.5 -39t-28.5 -111v-201h188q10 0 11.5 -14.5t1.5 -30.5t-1.5 -31.5t-11.5 -15.5h-186v-983q0 -10 -20.5 -11t-36.5 -1t-36 1t-20 11v983h-151
q-10 0 -11.5 15.5t-1.5 31.5zM795 211v1311q0 10 19.5 11t35.5 1t35.5 -1t19.5 -11v-1307q0 -66 31 -93.5t98 -27.5h56q10 0 14 -7t4 -38q0 -35 -4 -42t-14 -7h-84q-115 0 -163 59.5t-48 151.5z" />
    </font>
</defs>
</svg>
