<?xml version="1.0" encoding="UTF-8"?>
<svg width="52px" height="52px" viewBox="0 0 52 52" version="1.1" xmlns="http://www.w3.org/2000/svg" xmlns:xlink="http://www.w3.org/1999/xlink">
    <!-- Generator: Sketch 52.1 (67048) - http://www.bohemiancoding.com/sketch -->
    <title>Fill 1</title>
    <desc>Created with Sketch.</desc>
    <g id="Design" stroke="none" stroke-width="1" fill="none" fill-rule="evenodd">
        <g id="Telenor-New-New-" transform="translate(-779.000000, -648.000000)" fill="#00ACE7">
            <g id="Group-9" transform="translate(719.000000, 624.000000)">
                <path d="M109.713727,24.6047292 L104.304071,27.0670141 C103.957703,27.2267652 103.63785,27.4454069 103.366164,27.7173435 L94.5506496,36.5374944 L64.1923171,32.8973951 C63.6431504,32.8334414 63.0888538,33.0199731 62.6997802,33.4144876 L61.0103081,35.1039317 C60.1150391,35.9993505 60.392254,37.5128553 61.5487486,38.0296813 L83.304824,47.7827571 L77.0581944,54.0287707 L66.1482779,54.0287707 C65.6686648,54.0287707 65.2101043,54.2208317 64.8691985,54.5565221 L63.957807,55.4729923 C63.0516786,56.3791366 63.350146,57.9087631 64.5228298,58.4096673 L73.7270849,62.3534801 L77.6713184,71.5574866 C78.1722506,72.7300381 79.7072258,73.0285554 80.6078912,72.1224111 L81.5247458,71.2056745 C81.8656515,70.8647212 82.0522603,70.406253 82.0522603,69.9266 L82.0522603,59.0173608 L88.2988233,52.7710808 L98.0522452,74.5313346 C98.5693666,75.6878311 100.08289,75.9649639 100.978425,75.0695452 L102.667897,73.380101 C103.062167,72.985853 103.248776,72.4367836 103.184752,71.8879807 L99.5392525,41.5312808 L108.36023,32.7108634 C108.631915,32.4391933 108.850503,32.1248208 109.010263,31.7730087 L111.472686,26.3635898 C111.989541,25.2495959 110.838509,24.0930994 109.713727,24.6047292 Z" id="Fill-1"></path>
            </g>
        </g>
    </g>
</svg>