<svg xmlns="http://www.w3.org/2000/svg" xmlns:xlink="http://www.w3.org/1999/xlink" width="59" height="59" version="1.1" viewBox="0 0 59 59"><title>Fill 229</title><desc>Created with Sketch.</desc><g id="Design" fill="none" fill-rule="evenodd" stroke="none" stroke-width="1"><g id="Telenor-New-New-" fill="#00ACE7" transform="translate(-61.000000, -640.000000)"><g id="Group-7" transform="translate(0.000000, 624.000000)"><path id="Fill-229" d="M98.6167742,67.6567742 C100.574427,65.3146102 102.761926,62.0606473 104.354996,57.9019355 C107.184478,58.642968 108.64281,59.5015003 109.300645,60.0043997 C106.526643,63.4408791 102.825332,66.1331926 98.6167742,67.6567742 L98.6167742,67.6567742 Z M72.1393548,60.0043997 C72.7971896,59.5015003 74.2555222,58.642968 77.0850043,57.9019355 C78.6780741,62.059864 80.8655729,65.3146102 82.8232258,67.6567742 C78.6146683,66.1331926 74.9133569,63.4400957 72.1393548,60.0043997 L72.1393548,60.0043997 Z M82.3587097,23.0632258 C80.5129935,25.5416121 78.5394355,28.8103247 77.0852349,32.8180645 C74.2567348,32.0630063 72.8025342,31.1909222 72.1393548,30.678733 C74.8160428,27.3178424 78.3396827,24.653497 82.3587097,23.0632258 L82.3587097,23.0632258 Z M109.300645,30.6781073 C108.637466,31.1902544 107.183265,32.0622669 104.354765,32.8180645 C102.900564,28.8098525 100.927006,25.5414085 99.0812903,23.0632258 C103.100317,24.6533663 106.623957,27.3174928 109.300645,30.6781073 L109.300645,30.6781073 Z M106.721444,43.9664516 C106.59963,41.179939 106.185464,38.5929889 105.584516,36.2121441 C108.832881,35.5717451 110.822504,34.7988498 111.959432,34.2116129 C113.559251,37.1805124 114.631211,40.4904673 114.874839,43.9664516 L106.721444,43.9664516 L106.721444,43.9664516 Z M92.1135484,53.0687295 L92.1135484,46.7535484 L103.261935,46.7535484 C103.142488,49.28498 102.712479,51.6059844 102.139134,53.7212903 C99.4635207,53.3713664 96.1588203,53.1207452 92.1135484,53.0687295 L92.1135484,53.0687295 Z M78.1780645,46.7535484 L89.3264516,46.7535484 L89.3264516,53.0673012 C85.2586889,53.1193052 81.9501353,53.3698697 79.2569407,53.7212903 C78.6895317,51.6072508 78.289948,49.2867713 78.1780645,46.7535484 L78.1780645,46.7535484 Z M89.3264516,37.1903239 L89.3264516,43.5019355 L78.1780645,43.5019355 C78.289948,40.9924141 78.6735484,38.6687833 79.2409573,36.5341935 C81.9341519,36.8862827 85.2506972,37.1383376 89.3264516,37.1903239 L89.3264516,37.1903239 Z M92.1135484,37.1903239 C96.1893028,37.1383376 99.5138398,36.8862827 102.207034,36.5341935 C102.766452,38.6672079 103.150052,40.9908388 103.261935,43.5019355 L92.1135484,43.5019355 L92.1135484,37.1903239 L92.1135484,37.1903239 Z M94.0370954,21.4086336 C96.058866,23.5001391 99.2756913,27.4260496 101.403871,33.0041864 C98.9892056,33.3961466 95.9442717,33.6824273 92.1135484,33.7470968 L92.1135484,21.2051613 C92.7601876,21.2493258 93.4068268,21.3147839 94.0370954,21.4086336 L94.0370954,21.4086336 Z M89.3264516,21.2051613 L89.3264516,33.7470968 C85.5005428,33.6824273 82.4529237,33.3969352 80.036129,33.0057637 C82.1661854,27.4339361 85.3858474,23.5017164 87.4094009,21.4078449 C88.0402253,21.3139953 88.6792422,21.2493258 89.3264516,21.2051613 L89.3264516,21.2051613 Z M69.4805685,34.2116129 C70.6174961,34.7988498 72.6071193,35.5709272 75.8554839,36.2121441 C75.2545364,38.5929889 74.84037,41.179939 74.7185563,43.9664516 L66.5651613,43.9664516 C66.8087886,40.4904673 67.8807489,37.1805124 69.4805685,34.2116129 L69.4805685,34.2116129 Z M66.5651613,46.7535484 L74.6972309,46.7535484 C74.818726,49.5621437 75.2399089,52.1441866 75.8554839,54.5045844 C72.5994161,55.1458013 70.6068971,55.9203323 69.4729432,56.5083871 C67.877308,53.5394876 66.8081514,50.2295327 66.5651613,46.7535484 L66.5651613,46.7535484 Z M80.036129,57.241045 C82.3364722,56.8538167 85.2314619,56.5722679 88.8619355,56.5083871 L88.8619355,69.0503226 C88.5176664,69.0258744 88.1812217,68.9959056 87.8447769,68.956473 C86.0999588,67.3539318 82.3990666,63.4335418 80.036129,57.241045 L80.036129,57.241045 Z M93.1246754,68.9572616 C92.7876331,68.9966942 92.4505907,69.0258744 92.1135484,69.0503226 L92.1135484,56.5083871 C95.7426322,56.5722679 98.642764,56.8530281 100.939355,57.2394677 C98.5722202,63.421712 94.8725927,67.3523545 93.1246754,68.9572616 L93.1246754,68.9572616 Z M111.967057,56.5083871 C110.833103,55.9203323 108.840584,55.1458013 105.584516,54.5045844 C106.200091,52.1441866 106.653673,49.5621437 106.775168,46.7535484 L114.874839,46.7535484 C114.631849,50.2295327 113.562692,53.5394876 111.967057,56.5083871 L111.967057,56.5083871 Z M90.688,16.56 C74.808,16.56 61.92,29.4792 61.92,45.36 C61.92,61.2408 74.84,74.16 90.72,74.16 C106.6,74.16 119.52,61.2408 119.52,45.36 C119.52,29.4792 106.568,16.56 90.688,16.56 L90.688,16.56 Z"/></g></g></g></svg>