<svg xmlns="http://www.w3.org/2000/svg" xmlns:xlink="http://www.w3.org/1999/xlink" width="32" height="54" version="1.1" viewBox="0 0 32 54"><title>Fill 318</title><desc>Created with Sketch.</desc><g id="Design" fill="none" fill-rule="evenodd" stroke="none" stroke-width="1"><g id="Telenor-New-New-" fill="#00ACE7" transform="translate(-614.000000, -644.000000)"><g id="Group-8" transform="translate(360.000000, 624.000000)"><path id="Fill-318" d="M257.04,65.52 L283.68,65.52 L283.68,25.92 L257.04,25.92 L257.04,65.52 Z M269.64,72 C268.24833,72 267.12,70.8723 267.12,69.48 C267.12,68.0877 268.24833,66.96 269.64,66.96 C271.03167,66.96 272.16,68.0877 272.16,69.48 C272.16,70.8723 271.03167,72 269.64,72 L269.64,72 Z M263.52,25.2 L276.48,25.2 L276.48,23.76 L263.52,23.76 L263.52,25.2 Z M283.2,20.88 L256.8,20.88 C255.48,20.88 254.16,22.194 254.16,23.508 L254.16,70.812 C254.16,72.126 255.48,73.44 256.8,73.44 L283.2,73.44 C284.52,73.44 285.84,72.126 285.84,70.812 L285.84,23.508 C285.84,22.194 284.52,20.88 283.2,20.88 L283.2,20.88 Z"/></g></g></g></svg>