<?xml version="1.0" encoding="UTF-8"?>
<svg width="40px" height="58px" viewBox="0 0 40 58" version="1.1" xmlns="http://www.w3.org/2000/svg" xmlns:xlink="http://www.w3.org/1999/xlink">
    <!-- Generator: Sketch 52.1 (67048) - http://www.bohemiancoding.com/sketch -->
    <title>Group 4 Copy</title>
    <desc>Created with Sketch.</desc>
    <g id="Design" stroke="none" stroke-width="1" fill="none" fill-rule="evenodd">
        <g id="Telenor-New-New-" transform="translate(-432.000000, -639.000000)" fill="#00ACE7">
            <g id="Group-8" transform="translate(360.000000, 624.000000)">
                <g id="Group-4-Copy" transform="translate(72.720000, 15.120000)">
                    <path d="M15.1184002,56.16 C13.9233266,56.16 12.9586287,55.1952 12.9586287,54 C12.9586287,52.8048 13.9233266,51.8328 15.1184002,51.8328 C16.3134737,51.8328 17.2781716,52.8048 17.2781716,54 C17.2781716,55.1952 16.3134737,56.16 15.1184002,56.16 L15.1184002,56.16 Z M30.2368003,20.16 L27.3571051,20.16 L27.3571051,50.4 L2.87969527,50.4 L2.87969527,12.96 L18.7180193,12.96 L18.7180193,5.76 L2.87969527,5.76 C1.43984764,5.76 0,7.6104 0,8.64 L0,54.72 C0,56.16 1.43984764,57.6 2.87969527,57.6 L27.3571051,57.6 C28.7969527,57.6 30.2368003,56.16 30.2368003,54.72 C30.2368003,54.72 30.2439996,20.16 30.2368003,20.16 L30.2368003,20.16 Z" id="Fill-341"></path>
                    <path d="M30.24,14.4 L30.24,15.84 L28.8,15.84 L28.8,14.4 C28.8,14.4 26.64,14.4 25.2,12.96 C25.8552,11.7144 25.92,11.52 25.92,11.52 C25.92,11.52 27.8208,12.96 29.52,12.96 C31.68,12.96 32.4,12.24 32.4,11.52 C32.4,10.8 25.92,9.756 25.92,7.2 C25.92,5.5008 27.36,4.32 28.8,4.32 L28.8,2.88 L30.24,2.88 L30.24,4.32 C31.0896,4.32 33.12,5.04 33.12,5.04 L32.4,6.48 C31.9176,6.1992 30.24,5.76 29.52,5.76 C28.8,5.76 27.36,6.5232 27.36,7.2 C27.36,8.9568 33.84,8.3808 33.84,11.52 C33.84,12.96 31.9392,14.4 30.24,14.4 L30.24,14.4 Z M29.52,0 C24.3504,0 20.16,4.1904 20.16,9.36 C20.16,14.5296 24.3504,18.72 29.52,18.72 C34.6896,18.72 38.88,14.5296 38.88,9.36 C38.88,4.1904 34.6896,0 29.52,0 L29.52,0 Z" id="Fill-342"></path>
                </g>
            </g>
        </g>
    </g>
</svg>