<svg xmlns="http://www.w3.org/2000/svg" xmlns:xlink="http://www.w3.org/1999/xlink" width="41" height="54" version="1.1" viewBox="0 0 41 54"><title>sim</title><desc>Created with Sketch.</desc><g id="Design" fill="none" fill-rule="evenodd" stroke="none" stroke-width="1"><g id="Telenor-New-New-" fill="#00ACE7" transform="translate(-961.000000, -644.000000)"><g id="Group-9" transform="translate(719.000000, 624.000000)"><path id="sim" d="M275.76,45.7199662 C275.76,46.3169362 275.299941,46.8 274.731401,46.8 L269.588599,46.8 C269.020059,46.8 268.56,46.3169362 268.56,45.7199662 L268.56,41.4000337 C268.56,40.8030637 269.020059,40.32 269.588599,40.32 L272.674299,40.32 C274.37587,40.32 275.76,41.7733425 275.76,43.56 L275.76,45.7199662 Z M275.76,63.5850066 C275.76,65.4461045 274.266287,66.96 272.43,66.96 L267.989965,66.96 C267.376517,66.96 266.880035,66.4568096 266.880035,65.834967 L266.880035,59.0849802 C266.880035,58.4642978 266.382408,57.9600527 265.77,57.9600527 L250.230035,57.9600527 C249.616482,57.9600527 249.12,57.4568623 249.12,56.8350198 L249.12,50.085033 C249.12,49.4631904 249.616482,48.96 250.230035,48.96 L274.649965,48.96 C275.263518,48.96 275.76,49.4631904 275.76,50.085033 L275.76,63.5850066 Z M264.96,65.1599662 C264.96,65.7569362 264.477037,66.24 263.880067,66.24 L259.560034,66.24 C258.963064,66.24 258.48,65.7569362 258.48,65.1599662 L258.48,60.8400338 C258.48,60.2430638 258.963064,59.76 259.560034,59.76 L263.880067,59.76 C264.477037,59.76 264.96,60.2430638 264.96,60.8400338 L264.96,65.1599662 Z M255.6,65.1599662 C255.6,65.7569362 255.116936,66.24 254.519966,66.24 L252.36,66.24 C250.573342,66.24 249.12,64.7866575 249.12,63 L249.12,60.8400338 C249.12,60.2430638 249.603064,59.76 250.200034,59.76 L254.519966,59.76 C255.116936,59.76 255.6,60.2430638 255.6,60.8400338 L255.6,65.1599662 Z M249.12,43.56 C249.12,41.7733425 250.50413,40.32 252.205701,40.32 L255.291401,40.32 C255.859941,40.32 256.32,40.8030637 256.32,41.4000337 L256.32,45.7199662 C256.32,46.3169362 255.859941,46.8 255.291401,46.8 L250.148599,46.8 C249.580059,46.8 249.12,46.3169362 249.12,45.7199662 L249.12,43.56 Z M259.92,41.4000337 C259.92,40.8030637 260.403064,40.32 261.000034,40.32 L265.319966,40.32 C265.916936,40.32 266.4,40.8030637 266.4,41.4000337 L266.4,45.7199662 C266.4,46.3169362 265.916936,46.8 265.319966,46.8 L261.000034,46.8 C260.403064,46.8 259.92,46.3169362 259.92,45.7199662 L259.92,41.4000337 Z M282.631875,31.58523 L271.427535,20.4851953 C271.217535,20.2770703 270.93309,20.16 270.635625,20.16 L247.120035,20.16 C244.649175,20.16 242.64,22.1512359 242.64,24.6000347 L242.64,68.9999653 C242.64,71.4487641 244.649175,73.44 247.120035,73.44 L278.479965,73.44 C280.950825,73.44 282.96,71.4487641 282.96,68.9999653 L282.96,32.3699653 C282.96,32.0751562 282.841875,31.793355 282.631875,31.58523 Z"/></g></g></g></svg>