<?xml version="1.0" encoding="UTF-8"?>
<svg width="38px" height="53px" viewBox="0 0 38 53" version="1.1" xmlns="http://www.w3.org/2000/svg" xmlns:xlink="http://www.w3.org/1999/xlink">
    <!-- Generator: Sketch 52.1 (67048) - http://www.bohemiancoding.com/sketch -->
    <title>Fill 288</title>
    <desc>Created with Sketch.</desc>
    <g id="Design" stroke="none" stroke-width="1" fill="none" fill-rule="evenodd">
        <g id="Telenor-New-New-" transform="translate(-1331.000000, -643.000000)" fill="#00ACE7">
            <g id="Group-10" transform="translate(1079.000000, 624.000000)">
                <path d="M271.08,47.52 C265.71456,47.52 261.36,43.16544 261.36,37.8 C261.36,32.43456 265.71456,28.08 271.08,28.08 C276.44544,28.08 280.8,32.43456 280.8,37.8 C280.8,43.16544 276.44544,47.52 271.08,47.52 L271.08,47.52 Z M270.72,19.44 C260.869407,19.44 252,27.69552 252,37.584 C252,50.22648 265.471945,71.28 270.72,71.28 C275.968055,71.28 289.44,50.22648 289.44,37.584 C289.44,27.69552 280.570593,19.44 270.72,19.44 L270.72,19.44 Z" id="Fill-288"></path>
            </g>
        </g>
    </g>
</svg>