<svg xmlns="http://www.w3.org/2000/svg" xmlns:xlink="http://www.w3.org/1999/xlink" width="53" height="53" version="1.1" viewBox="0 0 53 53"><title>Group 2</title><desc>Created with Sketch.</desc><g id="Design" fill="none" fill-rule="evenodd" stroke="none" stroke-width="1"><g id="Telenor-New-New-" fill="#00ACE7" transform="translate(-1142.000000, -643.000000)"><g id="Group-10" transform="translate(1079.000000, 624.000000)"><g id="Group-2" transform="translate(63.360000, 19.440000)"><path id="Fill-105" d="M20.6147368,44.1094737 C20.6147368,45.3978947 20.0227074,46.6863158 18.0378947,46.6863158 C16.1052632,46.6863158 15.4610526,45.4326821 15.4610526,44.1094737 C15.4610526,43.4652632 16.1052632,42.8210526 16.7494737,42.8210526 L18.0378947,42.8210526 L18.0378947,36.3789474 L10.3073684,36.3789474 L10.3073684,46.0421053 C10.3073684,47.3653137 9.05373474,47.9747368 7.73052632,47.9747368 C6.40731789,47.9747368 5.15368421,46.7211032 5.15368421,45.3978947 C5.15368421,44.7536842 5.79789474,44.1094737 6.44210526,44.1094737 L7.73052632,44.1094737 L7.73052632,33.8021053 C7.73052632,33.1405011 8.35734316,32.5136842 9.01894737,32.5136842 L19.3263158,32.5136842 C19.98792,32.5136842 20.6147368,33.1405011 20.6147368,33.8021053 L20.6147368,44.1094737 L20.6147368,44.1094737 Z M21.9031579,27.36 L2.57684211,27.36 C1.28842105,27.36 0,28.6484211 0,29.9368421 L0,49.2631579 C0,50.5515789 1.28842105,51.84 2.57684211,51.84 L21.9031579,51.84 C23.1915789,51.84 24.48,50.5515789 24.48,49.2631579 L24.48,29.9368421 C24.48,28.6484211 23.1915789,27.36 21.9031579,27.36 L21.9031579,27.36 Z"/><path id="Fill-106" d="M39.6,20.6147368 C34.9752126,20.6147368 31.2252632,16.8654316 31.2252632,12.24 C31.2252632,7.61521263 34.9752126,3.86526316 39.6,3.86526316 C44.2247874,3.86526316 47.9747368,7.61521263 47.9747368,12.24 C47.9747368,16.8654316 44.2247874,20.6147368 39.6,20.6147368 L39.6,20.6147368 Z M49.2631579,0 L29.9368421,0 C28.6484211,0 27.36,1.28842105 27.36,2.57684211 L27.36,21.9031579 C27.36,23.1915789 28.6484211,24.48 29.9368421,24.48 L49.2631579,24.48 C50.5515789,24.48 51.84,23.1915789 51.84,21.9031579 L51.84,2.57684211 C51.84,1.28842105 50.5515789,0 49.2631579,0 L49.2631579,0 Z"/><path id="Fill-107" d="M40.104,11.04 L40.104,5.76 L38.808,5.76 L38.808,11.04 L38.16,11.04 L38.16,13.68 L40.752,13.68 L40.752,13.02 L44.64,13.02 L44.64,11.7 L40.752,11.7 L40.752,11.04 L40.104,11.04"/><path id="Fill-108" d="M44.1094737,47.9747368 L47.9747368,44.1094737 L47.9747368,47.9747368 L44.1094737,47.9747368 L44.1094737,47.9747368 Z M35.0905263,38.9557895 L38.9557895,35.0905263 L46.6863158,42.8210526 L42.8210526,46.6863158 L35.0905263,38.9557895 L35.0905263,38.9557895 Z M31.2252632,35.0905263 L35.0905263,31.2252632 L37.6673684,33.8021053 L33.8021053,37.6673684 L31.2252632,35.0905263 L31.2252632,35.0905263 Z M49.2631579,27.36 L30.0064168,27.36 C28.6832084,27.36 27.36,28.6832084 27.36,30.0064168 L27.36,49.2631579 C27.36,50.5515789 28.6484211,51.84 29.9368421,51.84 L49.2631579,51.84 C50.5515789,51.84 51.84,50.5515789 51.84,49.2631579 L51.84,29.9368421 C51.84,28.6484211 50.5515789,27.36 49.2631579,27.36 L49.2631579,27.36 Z"/><path id="Fill-109" d="M6.44210526,23.1915789 L2.57684211,19.3263158 L3.86526316,18.0378947 L6.44210526,20.6147368 L7.73052632,19.3263158 L5.15368421,16.7494737 L10.3073684,11.5957895 L12.8842105,14.1726316 L14.1726316,12.8842105 L11.5957895,10.3073684 L16.7494737,5.15368421 L19.3263158,7.73052632 L20.6147368,6.44210526 L18.0378947,3.86526316 L19.3263158,2.57684211 L23.1915789,6.44210526 L6.44210526,23.1915789 L6.44210526,23.1915789 Z M21.9031579,0 L2.57684211,0 C1.28842105,0 0,1.28842105 0,2.57684211 L0,21.9031579 C0,23.1915789 1.28842105,24.48 2.57684211,24.48 L21.9031579,24.48 C23.1915789,24.48 24.48,23.1915789 24.48,21.9031579 L24.48,2.57684211 C24.48,1.28842105 23.1915789,0 21.9031579,0 L21.9031579,0 Z"/></g></g></g></g></svg>